<?xml version="1.0" encoding="UTF-8" standalone="no"?>
<!-- Created with Inkscape (http://www.inkscape.org/) -->

<svg
   xmlns:dc="http://purl.org/dc/elements/1.1/"
   xmlns:cc="http://creativecommons.org/ns#"
   xmlns:rdf="http://www.w3.org/1999/02/22-rdf-syntax-ns#"
   xmlns:svg="http://www.w3.org/2000/svg"
   xmlns="http://www.w3.org/2000/svg"
   xmlns:sodipodi="http://sodipodi.sourceforge.net/DTD/sodipodi-0.dtd"
   xmlns:inkscape="http://www.inkscape.org/namespaces/inkscape"
   width="128.90984mm"
   height="192.07697mm"
   viewBox="0 0 456.76713 680.58767"
   id="svg4993"
   version="1.1"
   inkscape:version="0.91 r13725"
   sodipodi:docname="datamotik.svg">
  <defs
     id="defs4995" />
  <sodipodi:namedview
     id="base"
     pagecolor="#ffffff"
     bordercolor="#666666"
     borderopacity="1.0"
     inkscape:pageopacity="0.0"
     inkscape:pageshadow="2"
     inkscape:zoom="1.2636139"
     inkscape:cx="228.38355"
     inkscape:cy="342.82293"
     inkscape:document-units="px"
     inkscape:current-layer="layer1"
     showgrid="false"
     fit-margin-top="0"
     fit-margin-left="0"
     fit-margin-right="0"
     fit-margin-bottom="0"
     inkscape:window-width="1920"
     inkscape:window-height="1027"
     inkscape:window-x="-8"
     inkscape:window-y="-8"
     inkscape:window-maximized="1" />
  <metadata
     id="metadata4998">
    <rdf:RDF>
      <cc:Work
         rdf:about="">
        <dc:format>image/svg+xml</dc:format>
        <dc:type
           rdf:resource="http://purl.org/dc/dcmitype/StillImage" />
        <dc:title></dc:title>
      </cc:Work>
    </rdf:RDF>
  </metadata>
  <g
     inkscape:label="Layer 1"
     inkscape:groupmode="layer"
     id="layer1"
     transform="translate(-134.47359,-163.49694)">
    <path
       style="fill:#999999;fill-opacity:1"
       d="m 222.055,839.63326 c -10.1067,-9.4723 -11.2216,-20.80456 -9.4877,-31.69589 3.7981,-23.85792 40.9,-41.08283 41.3158,-59.54523 -2.1127,-10.43772 -24.0679,-26.03956 -34.7401,-40.16087 -8.7628,-11.59471 -16.77,-23.95051 -23.9378,-36.44166 -8.5151,8.35165 -23.9256,11.60334 -34.8672,8.55201 -9.1529,-2.55253 -15.9339,-8.63641 -19.968,-16.19834 -7.6025,-14.25115 -6.3791,-32.22655 -4.3972,-48.25671 1.1673,-9.44106 5.7347,-18.17024 9.4337,-26.93456 4.4108,-10.45064 10.4861,-20.1308 15.1643,-30.4645 5.8772,-12.98206 10.7041,-26.41496 16.1887,-39.5677 5.4783,-13.13762 11.822,-27.22591 16.6989,-39.30173 5.7054,-14.12752 27.277,-33.11811 -2.5945,-45.63464 -18.0936,-9.10459 -28.9596,-19.83109 -35.6256,-35.11472 -5.9826,-13.71651 -3.8535,-30.1206 -1.3441,-44.87311 1.6949,-9.96406 6.857,-19.03019 10.8777,-28.30323 7.4304,-17.13698 14.404,-34.67169 24.4403,-50.42474 6.7658,-10.61952 15.0638,-20.27372 23.8463,-29.29683 8.1512,-8.37443 17.1496,-15.96009 26.5828,-22.85841 8.0045,-5.85346 20.1091,-8.09816 25.3211,-15.61565 8.5589,-12.3448 -14.5068,-24.26394 5.0935,-40.26691 24.1373,-15.09959 17.6977,19.63094 8.7245,32.67226 -2.921,9.89047 8.6427,8.83178 22.1701,7.81472 10.5227,-0.79115 22.6854,0.5168 30.2968,1.31629 10.0167,1.05212 44.9343,11.60362 15.6227,7.11747 -30.8176,-5.79955 -64.5552,-7.18386 -93.0645,5.16606 -22.5329,9.76103 -38.8695,30.98903 -53.29,50.86513 -6.776,9.33939 -15.9185,25.72638 -14.9512,31.22013 0.6672,3.78984 16.7966,-9.50539 24.7978,-14.88285 13.6446,-9.17026 41.7723,-24.83584 63.5976,-35.45276 13.3183,-6.47875 27.1202,-11.94837 40.9769,-17.17771 12.2909,-4.63846 24.4796,-9.151 37.351,-12.5759 20.5023,-5.45539 42.8613,-10.07981 63.4526,-4.97059 17.4839,4.3382 34.3154,14.91968 45.6549,28.91691 12.0632,14.8905 18.8016,34.76951 20.0143,53.89478 0.9848,15.5319 -2.7996,32.00148 -10.5957,45.47111 -4.6686,8.06624 -10.6029,11.7557 -20.4506,19.06608 -3.2906,8.29985 13.0249,13.65288 20.5663,19.24582 7.078,5.24928 15.5392,8.36614 22.889,13.22755 18.684,12.35833 38.7017,25.05128 53.7135,40.38883 9.2099,7.81129 18.192,21.41995 24.7481,33.72677 5.7975,10.88277 10.0257,20.67553 12.5427,34.80074 2.2008,11.76263 5.1123,22.83642 5.9889,34.46337 0.9642,12.78847 0.1347,25.67686 -0.8289,38.46537 -1.0576,14.03635 -3.0838,27.99851 -5.4268,41.87827 -4.0208,23.8181 -9.6455,47.33908 -14.7944,70.93903 -6.5776,30.14885 -16.177,59.71657 -20.5646,90.26109 -1.9804,13.78646 7.2995,31.86868 -2.561,41.70535 -11.4115,11.38398 -36.6769,9.07482 -48.2726,2.84738 -9.3532,-5.22039 -22.0793,-31.02559 -37.9492,-40.56498 -10.3704,-6.23372 -22.9935,-8.37378 -35.0441,-9.46366 -12.0076,-1.08599 -24.3082,0.25048 -36.0443,3.01182 -18.9048,4.448 -37.846,10.96673 -54.1326,21.54588 -13.8245,8.97984 -20.7467,26.97252 -35.3893,34.54545 -11.9698,6.19062 -26.297,6.83879 -39.7654,7.28827 -12.7376,0.42509 -33.848,-0.78593 -37.9834,-4.37006 z m 74.9367,-12.23571 c 13.1568,-6.41213 20.6515,-20.91251 32.4268,-29.605 9.5132,-7.02262 19.332,-14.32201 30.5732,-17.99015 26.8977,-8.77712 56.7702,-14.1761 84.4652,-8.38717 10.2434,2.14113 19.2415,8.78049 27.3826,15.35588 11.6859,9.4385 16.0074,27.88146 29.8187,33.78842 11.836,5.0621 29.4566,7.55004 38.589,-1.52259 8.8294,-8.77149 0.2317,-24.94094 1.7172,-37.29769 3.5647,-29.64968 25.8892,-71.05569 17.2094,-87.92115 -4.4893,-7.68799 -15.984,-7.06279 -24.3554,-9.46987 -15.4542,-4.44367 -31.5034,-6.52334 -47.3809,-9.06988 -25.7407,-4.12849 -51.5325,-8.57314 -77.5601,-10.05551 -25.8801,-1.47398 -51.9505,-1.2635 -77.7574,1.17765 -19.6962,1.86312 -39.6521,4.11158 -58.4616,10.24491 -9.8195,3.20194 -19.8997,7.02543 -27.8065,13.67061 -5.8272,4.89734 -22.0329,16.84132 -1.5132,28.88694 14.0382,9.89507 19.9232,18.77218 19.8608,31.06142 -0.034,6.64602 -5.5083,12.14624 -10.9109,16.68803 -13.9404,11.71941 -21.3799,19.91047 -26.1202,33.15809 -3.05,8.52367 -5.4894,19.57063 -0.5438,27.15327 4.0434,6.19939 11.6473,8.57944 20.4954,8.54232 21.3818,-0.53444 34.7172,-1.02278 49.8717,-8.40853 z m -63.489,-144.42109 c 18.156,-17.97476 32.8813,-19.49908 51.193,-23.89231 27.7644,-6.66105 57.0644,-3.69723 85.6064,-2.93437 26.3624,0.7046 52.647,3.62887 78.8114,6.93004 17.297,2.18237 34.3585,5.76587 51.6065,8.5035 18.6414,2.9588 39.8313,9.9769 57.4435,2.42036 4.2162,-1.80899 6.7731,-6.38526 9.0558,-10.36501 2.9584,-5.15777 8.9622,-16.44874 5.6695,-16.91299 -2.8614,-0.40342 -11.236,10.87285 -18.4804,12.75505 -7.0485,1.8313 -15.3764,1.43943 -21.7475,-2.08817 -6.5603,-3.63236 -11.2032,-10.7698 -13.7071,-17.83819 -7.2036,-20.33529 0.1627,-43.20307 -1.664,-64.69908 -1.5959,-18.77918 -10.1547,-46.5054 -8.1049,-55.95669 5.8814,7.09955 12.1682,5.59741 19.2271,4.5423 14.9073,-2.22822 31.5744,-14.25133 43.3148,-21.84173 -1.4368,-14.60053 -5.4271,-24.87868 -12.0173,-35.48727 -13.0967,-21.08228 -32.7583,-37.80249 -52.6405,-52.6578 -13.6276,-10.18198 -29.0949,-17.92844 -44.84,-24.36843 -7.3122,-2.99083 -14.6536,-6.23683 -22.7862,-6.52034 -12.3793,-0.43157 -27.0318,7.68667 -38.563,14.54657 -38.5814,16.67034 -87.6482,45.45632 -127.5488,47.1549 -10.4513,0.72268 -32.2322,-2.93 -45.3507,4.74655 -10.3777,6.07276 -14.9146,18.97921 -20.847,29.4378 -6.1692,10.87593 -10.9086,22.5534 -15.1504,34.3157 -5.078,14.08094 -10.5785,29.36075 -12.2571,43.20061 0.1723,25.64752 2.4063,51.3044 9.8536,75.60284 4.0682,13.27343 9.0992,27.17915 18.6837,37.2227 6.6625,6.98172 14.8382,28.88614 25.2396,14.18346 z M 276.87,556.1119 c -20.0016,0.67344 -15.7115,-35.14937 -17.05,-31.0847 -24.06,-8.43781 -15.9957,33.31883 -43.9762,23.14551 -25.9756,-0.46953 -29.2362,-28.12251 -13.1307,-43.5456 5.2343,-24.48148 50.7404,-19.01175 55.4076,3.9018 -15.4589,14.26161 17.1487,12.3593 8.3071,32.97011 6.9872,23.96838 47.9856,-6.56995 49.1919,9.09542 -13.3456,3.59405 -27.1337,6.05914 -38.7497,5.51746 z m -57.9934,-14.85471 c 17.028,2.14252 32.0539,-32.7758 26.869,-40.04066 -12.254,-11.08102 -37.8196,-1.21379 -33.4329,5.95267 37.7654,-17.53748 17.7376,43.47261 -3.9274,15.75172 -6.0865,-22.29433 -17.361,25.71021 6.8436,19.03036 z m 5.9673,-21.39529 c 10.9016,-6.78692 -11.9331,-17.10717 -0.7687,-3.45432 -18.6605,-8.82098 -8.1927,15.86916 0.7687,3.45432 z m 144.0229,32.24647 c -13.8172,-7.02932 -40.6658,-27.64832 -30.4968,-36.6278 6.8714,-7.14941 16.2451,-17.49627 27.3863,-25.76937 9.7257,-11.58395 31.0895,6.84987 32.6137,14.7372 13.9121,18.06099 26.175,-3.16418 18.5684,-20.14902 18.3754,-7.92658 43.0283,-19.38076 51.1635,7.64697 22.7263,27.40466 -39.1303,58.76421 -42.5727,24.99608 -19.0843,0.95989 -26.038,21.65766 -42.2434,30.11741 -2.4346,2.58249 -10.7287,8.31644 -14.419,5.04853 z m 4.0032,-6.86026 c 11.8508,-13.45353 32.866,-19.7657 22.5353,-33.02868 -3.3279,2.54462 -24.4015,-36.37977 -35.2767,-6.5902 12.8709,-6.80236 23.1237,13.71617 21.5984,14.48159 23.0122,7.40454 -29.4243,30.53495 -12.2559,-1.06772 6.9364,-18.80448 -28.2816,14.52426 -11.6947,-6.9312 1.3839,-18.17353 -10.6878,9.00054 -13.9764,8.91158 -1.5562,3.97378 20.2169,27.63858 29.07,24.22463 z m 62.5275,-25.82585 c 11.2447,-3.87756 0.5252,-13.58418 4.4802,-17.31037 -16.037,-3.06331 8.5002,-22.85755 -16.3405,-12.95278 5.2001,6.19605 4.2591,33.65897 11.8603,30.26315 z m 24.3911,-4.22042 c 13.2179,-7.08281 -5.6669,-42.43072 -17.4186,-28.60622 11.8112,3.81328 13.2614,20.38098 12.9956,22.30499 -0.5401,3.40278 -2.4683,14.31137 4.423,6.30123 z M 312.37,543.13313 c -9.6834,-15.04199 6.1642,-26.54465 3.3676,-42.41569 -14.6304,-5.75506 -36.0605,-3.22114 -39.549,11.78235 -15.2128,25.36526 -3.0665,-28.86689 18.6575,-21.26169 15.6293,-5.60217 38.454,8.40341 24.9165,22.67396 -9.2268,12.46644 29.5388,9.73919 3.5899,14.51697 -14.0902,-4.93187 0.9724,17.82902 -10.9825,14.7041 z m -26,-4.86024 c -32.3847,-14.98724 22.4485,-57.65172 19.4937,-13.12351 -5.0977,4.65559 -10.7701,14.97186 -19.4937,13.12351 z m 7.5494,-9.16099 c 15.7326,-20.05995 -15.7326,-19.77564 -11.5834,-1.65334 1.4064,3.8936 8.8675,5.37286 11.5834,1.65334 z m -4.7836,-7.03551 c -10.8733,-11.54335 17.4071,8.62909 0,0 z m 198.4374,-21.87614 c -12.4753,-8.3475 -28.3663,-55.7849 -10.989,-25.81051 8.6154,21.68363 27.2091,22.24442 36.9096,4.15478 -14.0904,20.82556 -34.9756,-9.7554 -33.9221,-20.05432 7.1084,-12.81807 34.2897,-23.72903 30.4343,-0.0186 2.9703,8.2304 16.884,22.42209 13.9172,-2.75026 -5.9188,-22.79636 -32.4677,-22.34533 -44.0762,-5.38144 -25.4537,21.33149 0.3878,-22.76807 16.0721,-20.60354 20.7737,-2.6731 39.9774,20.81892 35.8477,40.46126 -7.2659,14.52388 -24.2219,23.65492 -37.8968,33.0921 l -3.0561,-0.27392 -3.2407,-2.8155 0,0 z m 13.7274,-27.18578 c -11.3728,-8.99151 -4.8838,-16.93258 -0.3927,-21.73498 -25.839,1.22048 -5.9599,31.6298 1.2992,23.00793 z M 165.3835,675.59969 c 6.6057,0.83348 20.0035,-3.95464 25.524,-10.0286 3.822,-4.20512 -4.7759,-15.94617 -8.0632,-24.1802 -3.3886,-8.48787 -6.7843,-17.78787 -7.4792,-26.90071 -0.7029,-9.21751 2.855,-26.95617 -6.7926,-28.52602 -15.9904,-2.60193 -24.6855,25.10074 -25.6674,41.27165 -1.0776,17.74478 4.8408,46.13841 22.4784,48.36388 z m 384.389,-22.40685 c 7.9361,-0.12095 13.7924,-8.86931 17.9778,-15.61319 8.1495,-13.13143 9.4819,-29.56849 11.7041,-44.86263 2.3919,-16.46163 3.7517,-27.89805 1.6656,-49.87569 -0.5981,-8.77191 -1.7351,-21.07459 -7.4199,-25.31169 -7.8433,-6.56863 -24.9456,9.54102 -42.0801,11.87533 -19.1397,5.16396 -3.8954,28.37579 -4.8227,42.65446 -1.329,20.46592 -9.6863,42.91493 -1.0524,61.51806 4.3525,9.37837 13.6896,19.77291 24.0276,19.61535 z M 204.3663,434.75481 c 10.1512,3.58386 21.391,3.19099 32.1549,3.01507 11.1839,-0.18278 29.9552,-3.26376 33.2894,-4.22281 46.7239,-10.26595 88.2882,-26.01161 129.7921,-45.48035 16.8941,-7.92475 34.2326,-16.20575 48.0106,-28.79068 10.5004,-9.59107 23.789,-19.72486 25.157,-34.45781 5.6548,-18.91455 3.2283,-44.42588 -7.4003,-62.52113 -11.6081,-19.76281 -30.5109,-36.65971 -55.7031,-40.31158 -22.1774,-2.23916 -43.0306,4.25719 -63.5546,9.22723 -19.5253,4.72821 -37.9442,13.32816 -56.3469,21.38646 -13.7627,6.0265 -27.1004,13.00468 -40.3332,20.11973 -13.9608,7.50647 -27.988,14.99354 -41.1733,23.79112 -9.1364,6.09603 -18.5507,12.10865 -26.1748,20.0149 -6.6889,6.93646 -12.711,14.82157 -16.7141,23.58693 -4.9245,10.7831 -8.4933,22.68676 -8.4645,34.5411 0.029,11.80057 1.7817,24.70697 8.5935,34.34298 8.972,12.69168 24.2111,20.58454 38.8673,25.75884 z m 176.8451,-80.43922 c 11.0222,-15.77712 46.1831,-38.83319 12.3027,-54.67764 10.3473,4.98496 40.1721,12.85389 39.0469,22.44001 -20.2502,-11.94379 -24.8064,44.38723 -51.3496,32.23763 z M 277.0168,187.35916 c 10.2625,-14.65153 -1.3325,-23.28506 -5.9815,-9.05172 -2.545,7.79165 1.2397,13.55708 5.9815,9.05172 z m -52.8579,81.38212 c -2.6412,-2.75503 2.0894,-8.19195 4.6132,-3.59456 2.1276,3.87565 0.054,6.77537 -4.6132,3.59456 z M 212.12,260.71985 c 0.328,-12.75292 30.6395,-11.2813 4.1229,1.03951 l -2.0655,0.0682 -2.0574,-1.10766 z m -25.3326,-3.8045 c -9.2177,-5.91724 -19.3181,-4.64421 -20.9034,-12.6291 -1.5478,-7.79585 6.2142,-18.75663 14.1503,-19.19132 5.7476,-0.31481 7.243,5.90166 11.7048,12.69648 7.3306,11.47201 12.1281,30.08826 -4.9517,19.12394 z m 6.2531,-3.3208 c -4.6438,-10.5144 -5.5623,-30.04114 -18.3977,-20.77635 -6.2154,4.58341 -2.3129,12.09517 1.7547,14.55518 5.0854,3.07547 8.6718,3.02135 16.643,6.22117 z m 94.452,-22.19006 c 3.6148,1.38256 4.8392,6.66116 -2.4438,6.43797 -5.8743,-2.98176 -3.055,-7.29268 2.4438,-6.43797 z M 268.12,229.71985 c -1.7012,-7.69061 27.4407,-13.9664 5.9611,-0.44784 l -2.8681,1.71718 z"
       id="path4147"
       inkscape:connector-curvature="0"
       sodipodi:nodetypes="cacacsaaaaascaaaaaasccsscaassaasaaaacaacacaaaaaacaaaaaacaaaaaaaacaaaaascasaacacaaasaasaaaacscaaasccaaacaaccccccccccccccccccccccccccccccccccccccccccccccccccccccccccccccccccccccccccccssssaasaaacccaaaaacaacacsaaaaaaaacccccsccsccccccsaacsccscccccccc" />
  </g>
</svg>
