<?xml version="1.0" encoding="UTF-8" standalone="no"?>
<svg
   xmlns:dc="http://purl.org/dc/elements/1.1/"
   xmlns:cc="http://creativecommons.org/ns#"
   xmlns:rdf="http://www.w3.org/1999/02/22-rdf-syntax-ns#"
   xmlns:svg="http://www.w3.org/2000/svg"
   xmlns="http://www.w3.org/2000/svg"
   xmlns:xlink="http://www.w3.org/1999/xlink"
   width="297mm"
   height="210mm"
   viewBox="0 0 1052.3622 744.09448"
   id="svg2"
   version="1.1">
  <defs
     id="defs4">
    <defs
       id="defs5530">
      <rect
         id="SVGID_1_"
         x="15.572"
         y="23.601"
         width="114.021"
         height="54.691002" />
    </defs>
    <clipPath
       id="SVGID_2_">
      <use
         height="100%"
         width="100%"
         y="0"
         x="0"
         style="overflow:visible"
         xlink:href="#SVGID_1_"
         overflow="visible"
         id="use5534" />
    </clipPath>
  </defs>
  <metadata
     id="metadata7">
    <rdf:RDF>
      <cc:Work
         rdf:about="">
        <dc:format>image/svg+xml</dc:format>
        <dc:type
           rdf:resource="http://purl.org/dc/dcmitype/StillImage" />
        <dc:title></dc:title>
      </cc:Work>
    </rdf:RDF>
  </metadata>
  <g
     id="g4452"
     transform="translate(-1538.3369,219.21761)">
    <g
       style="stroke:#546e7a"
       transform="translate(1651.5177,-611.0557)"
       id="g5331">
      <rect
         rx="48.417206"
         style="opacity:1;fill:none;fill-opacity:1;stroke:#546e7a;stroke-width:3.4567759;stroke-linejoin:miter;stroke-miterlimit:4;stroke-dasharray:none;stroke-opacity:1"
         id="rect4138"
         width="159.9873"
         height="159.9873"
         x="146.30142"
         y="433.60007"
         ry="48.417206" />
      <rect
         rx="3.029871"
         style="opacity:1;fill:none;fill-opacity:1;stroke:#546e7a;stroke-width:2.07406569;stroke-linejoin:miter;stroke-miterlimit:4;stroke-dasharray:none;stroke-opacity:1"
         id="rect4142"
         width="23.833076"
         height="23.833076"
         x="476.90887"
         y="156.92873"
         ry="3.029871"
         transform="matrix(0.70710678,0.70710678,-0.70710678,0.70710678,0,0)" />
      <rect
         rx="3.029871"
         transform="matrix(0.70710678,0.70710678,-0.70710678,0.70710678,0,0)"
         ry="3.029871"
         y="183.80237"
         x="503.7825"
         height="23.833076"
         width="23.833076"
         id="rect4148"
         style="opacity:1;fill:none;fill-opacity:1;stroke:#546e7a;stroke-width:2.07406569;stroke-linejoin:miter;stroke-miterlimit:4;stroke-dasharray:none;stroke-opacity:1" />
      <path
         style="fill:#33691e;fill-rule:evenodd;stroke:#546e7a;stroke-width:3.4567759;stroke-linecap:butt;stroke-linejoin:miter;stroke-miterlimit:4;stroke-dasharray:none;stroke-opacity:1"
         d="m 226.39315,480.77405 0,6.52047"
         id="path4150" />
      <rect
         rx="3.029871"
         style="opacity:1;fill:none;fill-opacity:1;stroke:#546e7a;stroke-width:2.07406569;stroke-linejoin:miter;stroke-miterlimit:4;stroke-dasharray:none;stroke-opacity:1"
         id="rect4152"
         width="23.833076"
         height="23.833076"
         x="218.78789"
         y="-527.10864"
         ry="3.029871"
         transform="matrix(-0.70710678,0.70710678,-0.70710678,-0.70710678,0,0)" />
      <path
         id="path4154"
         d="m 217.48993,510.95249 -7.50882,7.50881"
         style="fill:#33691e;fill-rule:evenodd;stroke:#546e7a;stroke-width:3.4567759;stroke-linecap:butt;stroke-linejoin:miter;stroke-miterlimit:4;stroke-dasharray:none;stroke-opacity:1" />
      <path
         id="path4162"
         d="m 201.24274,542.9194 0,10.61907"
         style="fill:#33691e;fill-rule:evenodd;stroke:#546e7a;stroke-width:3.4567759;stroke-linecap:butt;stroke-linejoin:miter;stroke-miterlimit:4;stroke-dasharray:none;stroke-opacity:1" />
      <circle
         style="opacity:1;fill:none;fill-opacity:1;stroke:#546e7a;stroke-width:2.07406569;stroke-linejoin:miter;stroke-miterlimit:4;stroke-dasharray:none;stroke-opacity:1"
         id="path4164"
         cx="201.13506"
         cy="565.83423"
         r="11.550557" />
      <rect
         rx="3.029871"
         transform="matrix(-0.70710678,0.70710678,-0.70710678,-0.70710678,0,0)"
         ry="3.029871"
         y="-562.6767"
         x="182.42944"
         height="23.833076"
         width="23.833076"
         id="rect4166"
         style="opacity:1;fill:none;fill-opacity:1;stroke:#546e7a;stroke-width:2.07406569;stroke-linejoin:miter;stroke-miterlimit:4;stroke-dasharray:none;stroke-opacity:1" />
      <path
         style="fill:#33691e;fill-rule:evenodd;stroke:#546e7a;stroke-width:3.4567759;stroke-linecap:butt;stroke-linejoin:miter;stroke-miterlimit:4;stroke-dasharray:none;stroke-opacity:1"
         d="m 243.38553,518.8339 -7.50881,-7.50881"
         id="path4168" />
      <text
         xml:space="preserve"
         style="font-style:normal;font-weight:normal;font-size:21.45783043px;line-height:125%;font-family:sans-serif;letter-spacing:0px;word-spacing:0px;fill:#546e7a;fill-opacity:1;stroke:#546e7a;stroke-width:0.69135523px;stroke-linecap:butt;stroke-linejoin:miter;stroke-opacity:1"
         x="226.90807"
         y="571.75922"
         id="text4181"><tspan
           id="tspan4183"
           x="226.90807"
           y="571.75922"
           style="fill:#546e7a;stroke:#546e7a;stroke-width:0.69135523px">Oozie</tspan></text>
    </g>
    <g
       style="stroke:#546e7a"
       transform="translate(1676.8337,-611.0557)"
       id="g4764">
      <rect
         rx="48.417206"
         ry="48.417206"
         y="433.60007"
         x="497.56152"
         height="159.9873"
         width="159.9873"
         id="rect4230"
         style="opacity:1;fill:none;fill-opacity:1;stroke:#546e7a;stroke-width:3.4567759;stroke-linejoin:miter;stroke-miterlimit:4;stroke-dasharray:none;stroke-opacity:1" />
      <text
         id="text4252"
         y="571.75922"
         x="578.16815"
         style="font-style:normal;font-weight:normal;font-size:21.45783043px;line-height:125%;font-family:sans-serif;letter-spacing:0px;word-spacing:0px;fill:#546e7a;fill-opacity:1;stroke:#546e7a;stroke-width:0.69135523px;stroke-linecap:butt;stroke-linejoin:miter;stroke-opacity:1"
         xml:space="preserve"><tspan
           y="571.75922"
           x="578.16815"
           id="tspan4254"
           style="fill:#546e7a;stroke:#546e7a;stroke-width:0.69135523px">HDFS</tspan></text>
      <g
         style="stroke:#546e7a"
         id="g4641"
         transform="matrix(0.90359979,0,0,0.90359979,-45.246352,-94.976748)">
        <rect
           rx="3.029871"
           style="opacity:1;fill:none;fill-opacity:1;stroke:#546e7a;stroke-width:2.07406569;stroke-linejoin:miter;stroke-miterlimit:4;stroke-dasharray:none;stroke-opacity:1"
           id="rect4431"
           width="23.833076"
           height="23.833076"
           x="654.21057"
           y="-645.43475"
           ry="3.029871"
           transform="matrix(0,1,-1,0,0,0)" />
        <g
           style="fill:#1b5e20;stroke:#546e7a"
           transform="matrix(0.02961963,0,0,0.02961963,625.93558,658.54448)"
           id="g4332">
          <g
             style="fill:#1b5e20;stroke:#546e7a"
             id="g4272">
            <g
               style="fill:#1b5e20;stroke:#546e7a"
               id="g4274">
              <path
                 style="fill:#546e7a;stroke:#546e7a"
                 d="M 256.003,0 C 142.053,0 56.91,45.045 56.91,85.321 c 0,40.276 85.143,85.321 199.093,85.321 113.948,0 199.089,-45.045 199.089,-85.321 C 455.092,45.045 369.95,0 256.003,0 Z"
                 id="path4276" />
            </g>
          </g>
          <g
             style="fill:#1b5e20;stroke:#546e7a"
             id="g4278">
            <g
               style="fill:#1b5e20;stroke:#546e7a"
               id="g4280">
              <path
                 style="fill:#546e7a;stroke:#546e7a"
                 d="m 429.61,418.778 c -46.847,23.43 -108.503,36.33 -173.607,36.33 -65.109,0 -126.769,-12.901 -173.618,-36.328 -9.226,-4.616 -17.716,-9.567 -25.476,-14.813 l 0,22.71 c 0,40.276 85.143,85.323 199.093,85.323 113.948,0 199.089,-45.047 199.089,-85.323 l 0,-22.711 c -7.761,5.245 -16.252,10.198 -25.481,14.812 z"
                 id="path4282" />
            </g>
          </g>
          <g
             style="fill:#1b5e20;stroke:#546e7a"
             id="g4284">
            <g
               style="fill:#1b5e20;stroke:#546e7a"
               id="g4286">
              <path
                 style="fill:#546e7a;stroke:#546e7a"
                 d="m 429.61,304.996 c -46.847,23.426 -108.503,36.328 -173.607,36.328 -65.109,0 -126.769,-12.903 -173.618,-36.328 -9.226,-4.616 -17.716,-9.567 -25.476,-14.813 l 0,22.709 c 0,40.276 85.143,85.323 199.093,85.323 113.948,0 199.089,-45.047 199.089,-85.323 l 0,-22.713 c -7.761,5.245 -16.252,10.201 -25.481,14.817 z"
                 id="path4288" />
            </g>
          </g>
          <g
             style="fill:#1b5e20;stroke:#546e7a"
             id="g4290">
            <g
               style="fill:#1b5e20;stroke:#546e7a"
               id="g4292">
              <path
                 style="fill:#546e7a;stroke:#546e7a"
                 d="m 429.61,191.213 c -46.847,23.422 -108.503,36.322 -173.607,36.322 -65.109,0 -126.769,-12.901 -173.618,-36.324 -9.226,-4.616 -17.716,-9.569 -25.476,-14.813 l 0,22.706 c 0,40.278 85.143,85.327 199.093,85.327 113.948,0 199.089,-45.049 199.089,-85.327 l 0,-22.708 c -7.761,5.246 -16.252,10.201 -25.481,14.817 z"
                 id="path4294" />
            </g>
          </g>
          <g
             style="fill:#1b5e20;stroke:#546e7a"
             id="g4296" />
          <g
             style="fill:#1b5e20;stroke:#546e7a"
             id="g4298" />
          <g
             style="fill:#1b5e20;stroke:#546e7a"
             id="g4300" />
          <g
             style="fill:#1b5e20;stroke:#546e7a"
             id="g4302" />
          <g
             style="fill:#1b5e20;stroke:#546e7a"
             id="g4304" />
          <g
             style="fill:#1b5e20;stroke:#546e7a"
             id="g4306" />
          <g
             style="fill:#1b5e20;stroke:#546e7a"
             id="g4308" />
          <g
             style="fill:#1b5e20;stroke:#546e7a"
             id="g4310" />
          <g
             style="fill:#1b5e20;stroke:#546e7a"
             id="g4312" />
          <g
             style="fill:#1b5e20;stroke:#546e7a"
             id="g4314" />
          <g
             style="fill:#1b5e20;stroke:#546e7a"
             id="g4316" />
          <g
             style="fill:#1b5e20;stroke:#546e7a"
             id="g4318" />
          <g
             style="fill:#1b5e20;stroke:#546e7a"
             id="g4320" />
          <g
             style="fill:#1b5e20;stroke:#546e7a"
             id="g4322" />
          <g
             style="fill:#1b5e20;stroke:#546e7a"
             id="g4324" />
        </g>
        <rect
           rx="3.029871"
           transform="matrix(0,1,-1,0,0,0)"
           ry="3.029871"
           y="-681.43475"
           x="654.21057"
           height="23.833076"
           width="23.833076"
           id="rect4457"
           style="opacity:1;fill:none;fill-opacity:1;stroke:#546e7a;stroke-width:2.07406569;stroke-linejoin:miter;stroke-miterlimit:4;stroke-dasharray:none;stroke-opacity:1" />
        <rect
           rx="3.029871"
           style="opacity:1;fill:none;fill-opacity:1;stroke:#546e7a;stroke-width:2.07406569;stroke-linejoin:miter;stroke-miterlimit:4;stroke-dasharray:none;stroke-opacity:1"
           id="rect4459"
           width="23.833076"
           height="23.833076"
           x="654.21057"
           y="-717.43475"
           ry="3.029871"
           transform="matrix(0,1,-1,0,0,0)" />
        <rect
           rx="3.029871"
           transform="matrix(0,1,-1,0,0,0)"
           ry="3.029871"
           y="-753.43475"
           x="654.21057"
           height="23.833076"
           width="23.833076"
           id="rect4461"
           style="opacity:1;fill:none;fill-opacity:1;stroke:#546e7a;stroke-width:2.07406569;stroke-linejoin:miter;stroke-miterlimit:4;stroke-dasharray:none;stroke-opacity:1" />
        <path
           id="path4463"
           d="m 634.21965,677.34537 0,16.73302"
           style="fill:none;fill-rule:evenodd;stroke:#546e7a;stroke-width:3;stroke-linecap:butt;stroke-linejoin:miter;stroke-miterlimit:4;stroke-dasharray:none;stroke-opacity:1" />
        <path
           id="path4465"
           d="m 616.10993,693.89023 146.12088,0"
           style="fill:none;fill-rule:evenodd;stroke:#546e7a;stroke-width:3;stroke-linecap:butt;stroke-linejoin:miter;stroke-miterlimit:4;stroke-dasharray:none;stroke-opacity:1" />
        <path
           style="fill:none;fill-rule:evenodd;stroke:#546e7a;stroke-width:3;stroke-linecap:butt;stroke-linejoin:miter;stroke-miterlimit:4;stroke-dasharray:none;stroke-opacity:1"
           d="m 670.21965,677.34537 0,16.73302"
           id="path4467" />
        <path
           id="path4469"
           d="m 706.21965,677.34537 0,16.73302"
           style="fill:none;fill-rule:evenodd;stroke:#546e7a;stroke-width:3;stroke-linecap:butt;stroke-linejoin:miter;stroke-miterlimit:4;stroke-dasharray:none;stroke-opacity:1" />
        <path
           style="fill:none;fill-rule:evenodd;stroke:#546e7a;stroke-width:3;stroke-linecap:butt;stroke-linejoin:miter;stroke-miterlimit:4;stroke-dasharray:none;stroke-opacity:1"
           d="m 742.21965,677.34537 0,16.73302"
           id="path4471" />
        <g
           id="g4473"
           transform="matrix(0.02961963,0,0,0.02961963,661.93558,658.54448)"
           style="fill:#1b5e20;stroke:#546e7a">
          <g
             id="g4475"
             style="fill:#1b5e20;stroke:#546e7a">
            <g
               id="g4477"
               style="fill:#1b5e20;stroke:#546e7a">
              <path
                 id="path4479"
                 d="M 256.003,0 C 142.053,0 56.91,45.045 56.91,85.321 c 0,40.276 85.143,85.321 199.093,85.321 113.948,0 199.089,-45.045 199.089,-85.321 C 455.092,45.045 369.95,0 256.003,0 Z"
                 style="fill:#546e7a;stroke:#546e7a" />
            </g>
          </g>
          <g
             id="g4481"
             style="fill:#1b5e20;stroke:#546e7a">
            <g
               id="g4483"
               style="fill:#1b5e20;stroke:#546e7a">
              <path
                 id="path4485"
                 d="m 429.61,418.778 c -46.847,23.43 -108.503,36.33 -173.607,36.33 -65.109,0 -126.769,-12.901 -173.618,-36.328 -9.226,-4.616 -17.716,-9.567 -25.476,-14.813 l 0,22.71 c 0,40.276 85.143,85.323 199.093,85.323 113.948,0 199.089,-45.047 199.089,-85.323 l 0,-22.711 c -7.761,5.245 -16.252,10.198 -25.481,14.812 z"
                 style="fill:#546e7a;stroke:#546e7a" />
            </g>
          </g>
          <g
             id="g4487"
             style="fill:#1b5e20;stroke:#546e7a">
            <g
               id="g4489"
               style="fill:#1b5e20;stroke:#546e7a">
              <path
                 id="path4491"
                 d="m 429.61,304.996 c -46.847,23.426 -108.503,36.328 -173.607,36.328 -65.109,0 -126.769,-12.903 -173.618,-36.328 -9.226,-4.616 -17.716,-9.567 -25.476,-14.813 l 0,22.709 c 0,40.276 85.143,85.323 199.093,85.323 113.948,0 199.089,-45.047 199.089,-85.323 l 0,-22.713 c -7.761,5.245 -16.252,10.201 -25.481,14.817 z"
                 style="fill:#546e7a;stroke:#546e7a" />
            </g>
          </g>
          <g
             id="g4493"
             style="fill:#1b5e20;stroke:#546e7a">
            <g
               id="g4495"
               style="fill:#1b5e20;stroke:#546e7a">
              <path
                 id="path4497"
                 d="m 429.61,191.213 c -46.847,23.422 -108.503,36.322 -173.607,36.322 -65.109,0 -126.769,-12.901 -173.618,-36.324 -9.226,-4.616 -17.716,-9.569 -25.476,-14.813 l 0,22.706 c 0,40.278 85.143,85.327 199.093,85.327 113.948,0 199.089,-45.049 199.089,-85.327 l 0,-22.708 c -7.761,5.246 -16.252,10.201 -25.481,14.817 z"
                 style="fill:#546e7a;stroke:#546e7a" />
            </g>
          </g>
          <g
             id="g4499"
             style="fill:#1b5e20;stroke:#546e7a" />
          <g
             id="g4501"
             style="fill:#1b5e20;stroke:#546e7a" />
          <g
             id="g4503"
             style="fill:#1b5e20;stroke:#546e7a" />
          <g
             id="g4505"
             style="fill:#1b5e20;stroke:#546e7a" />
          <g
             id="g4507"
             style="fill:#1b5e20;stroke:#546e7a" />
          <g
             id="g4509"
             style="fill:#1b5e20;stroke:#546e7a" />
          <g
             id="g4511"
             style="fill:#1b5e20;stroke:#546e7a" />
          <g
             id="g4513"
             style="fill:#1b5e20;stroke:#546e7a" />
          <g
             id="g4515"
             style="fill:#1b5e20;stroke:#546e7a" />
          <g
             id="g4517"
             style="fill:#1b5e20;stroke:#546e7a" />
          <g
             id="g4519"
             style="fill:#1b5e20;stroke:#546e7a" />
          <g
             id="g4521"
             style="fill:#1b5e20;stroke:#546e7a" />
          <g
             id="g4523"
             style="fill:#1b5e20;stroke:#546e7a" />
          <g
             id="g4525"
             style="fill:#1b5e20;stroke:#546e7a" />
          <g
             id="g4527"
             style="fill:#1b5e20;stroke:#546e7a" />
        </g>
        <g
           style="fill:#1b5e20;stroke:#546e7a"
           transform="matrix(0.02961963,0,0,0.02961963,697.93558,658.54448)"
           id="g4529">
          <g
             style="fill:#1b5e20;stroke:#546e7a"
             id="g4531">
            <g
               style="fill:#1b5e20;stroke:#546e7a"
               id="g4533">
              <path
                 style="fill:#546e7a;stroke:#546e7a"
                 d="M 256.003,0 C 142.053,0 56.91,45.045 56.91,85.321 c 0,40.276 85.143,85.321 199.093,85.321 113.948,0 199.089,-45.045 199.089,-85.321 C 455.092,45.045 369.95,0 256.003,0 Z"
                 id="path4535" />
            </g>
          </g>
          <g
             style="fill:#1b5e20;stroke:#546e7a"
             id="g4537">
            <g
               style="fill:#1b5e20;stroke:#546e7a"
               id="g4539">
              <path
                 style="fill:#546e7a;stroke:#546e7a"
                 d="m 429.61,418.778 c -46.847,23.43 -108.503,36.33 -173.607,36.33 -65.109,0 -126.769,-12.901 -173.618,-36.328 -9.226,-4.616 -17.716,-9.567 -25.476,-14.813 l 0,22.71 c 0,40.276 85.143,85.323 199.093,85.323 113.948,0 199.089,-45.047 199.089,-85.323 l 0,-22.711 c -7.761,5.245 -16.252,10.198 -25.481,14.812 z"
                 id="path4541" />
            </g>
          </g>
          <g
             style="fill:#1b5e20;stroke:#546e7a"
             id="g4543">
            <g
               style="fill:#1b5e20;stroke:#546e7a"
               id="g4545">
              <path
                 style="fill:#546e7a;stroke:#546e7a"
                 d="m 429.61,304.996 c -46.847,23.426 -108.503,36.328 -173.607,36.328 -65.109,0 -126.769,-12.903 -173.618,-36.328 -9.226,-4.616 -17.716,-9.567 -25.476,-14.813 l 0,22.709 c 0,40.276 85.143,85.323 199.093,85.323 113.948,0 199.089,-45.047 199.089,-85.323 l 0,-22.713 c -7.761,5.245 -16.252,10.201 -25.481,14.817 z"
                 id="path4547" />
            </g>
          </g>
          <g
             style="fill:#1b5e20;stroke:#546e7a"
             id="g4549">
            <g
               style="fill:#1b5e20;stroke:#546e7a"
               id="g4551">
              <path
                 style="fill:#546e7a;stroke:#546e7a"
                 d="m 429.61,191.213 c -46.847,23.422 -108.503,36.322 -173.607,36.322 -65.109,0 -126.769,-12.901 -173.618,-36.324 -9.226,-4.616 -17.716,-9.569 -25.476,-14.813 l 0,22.706 c 0,40.278 85.143,85.327 199.093,85.327 113.948,0 199.089,-45.049 199.089,-85.327 l 0,-22.708 c -7.761,5.246 -16.252,10.201 -25.481,14.817 z"
                 id="path4553" />
            </g>
          </g>
          <g
             style="fill:#1b5e20;stroke:#546e7a"
             id="g4555" />
          <g
             style="fill:#1b5e20;stroke:#546e7a"
             id="g4557" />
          <g
             style="fill:#1b5e20;stroke:#546e7a"
             id="g4559" />
          <g
             style="fill:#1b5e20;stroke:#546e7a"
             id="g4561" />
          <g
             style="fill:#1b5e20;stroke:#546e7a"
             id="g4563" />
          <g
             style="fill:#1b5e20;stroke:#546e7a"
             id="g4565" />
          <g
             style="fill:#1b5e20;stroke:#546e7a"
             id="g4567" />
          <g
             style="fill:#1b5e20;stroke:#546e7a"
             id="g4569" />
          <g
             style="fill:#1b5e20;stroke:#546e7a"
             id="g4571" />
          <g
             style="fill:#1b5e20;stroke:#546e7a"
             id="g4573" />
          <g
             style="fill:#1b5e20;stroke:#546e7a"
             id="g4575" />
          <g
             style="fill:#1b5e20;stroke:#546e7a"
             id="g4577" />
          <g
             style="fill:#1b5e20;stroke:#546e7a"
             id="g4579" />
          <g
             style="fill:#1b5e20;stroke:#546e7a"
             id="g4581" />
          <g
             style="fill:#1b5e20;stroke:#546e7a"
             id="g4583" />
        </g>
        <g
           id="g4585"
           transform="matrix(0.02961963,0,0,0.02961963,733.93558,658.54448)"
           style="fill:#1b5e20;stroke:#546e7a">
          <g
             id="g4587"
             style="fill:#1b5e20;stroke:#546e7a">
            <g
               id="g4589"
               style="fill:#1b5e20;stroke:#546e7a">
              <path
                 id="path4591"
                 d="M 256.003,0 C 142.053,0 56.91,45.045 56.91,85.321 c 0,40.276 85.143,85.321 199.093,85.321 113.948,0 199.089,-45.045 199.089,-85.321 C 455.092,45.045 369.95,0 256.003,0 Z"
                 style="fill:#546e7a;stroke:#546e7a" />
            </g>
          </g>
          <g
             id="g4593"
             style="fill:#1b5e20;stroke:#546e7a">
            <g
               id="g4595"
               style="fill:#1b5e20;stroke:#546e7a">
              <path
                 id="path4597"
                 d="m 429.61,418.778 c -46.847,23.43 -108.503,36.33 -173.607,36.33 -65.109,0 -126.769,-12.901 -173.618,-36.328 -9.226,-4.616 -17.716,-9.567 -25.476,-14.813 l 0,22.71 c 0,40.276 85.143,85.323 199.093,85.323 113.948,0 199.089,-45.047 199.089,-85.323 l 0,-22.711 c -7.761,5.245 -16.252,10.198 -25.481,14.812 z"
                 style="fill:#546e7a;stroke:#546e7a" />
            </g>
          </g>
          <g
             id="g4599"
             style="fill:#1b5e20;stroke:#546e7a">
            <g
               id="g4601"
               style="fill:#1b5e20;stroke:#546e7a">
              <path
                 id="path4603"
                 d="m 429.61,304.996 c -46.847,23.426 -108.503,36.328 -173.607,36.328 -65.109,0 -126.769,-12.903 -173.618,-36.328 -9.226,-4.616 -17.716,-9.567 -25.476,-14.813 l 0,22.709 c 0,40.276 85.143,85.323 199.093,85.323 113.948,0 199.089,-45.047 199.089,-85.323 l 0,-22.713 c -7.761,5.245 -16.252,10.201 -25.481,14.817 z"
                 style="fill:#546e7a;stroke:#546e7a" />
            </g>
          </g>
          <g
             id="g4605"
             style="fill:#1b5e20;stroke:#546e7a">
            <g
               id="g4607"
               style="fill:#1b5e20;stroke:#546e7a">
              <path
                 id="path4609"
                 d="m 429.61,191.213 c -46.847,23.422 -108.503,36.322 -173.607,36.322 -65.109,0 -126.769,-12.901 -173.618,-36.324 -9.226,-4.616 -17.716,-9.569 -25.476,-14.813 l 0,22.706 c 0,40.278 85.143,85.327 199.093,85.327 113.948,0 199.089,-45.049 199.089,-85.327 l 0,-22.708 c -7.761,5.246 -16.252,10.201 -25.481,14.817 z"
                 style="fill:#546e7a;stroke:#546e7a" />
            </g>
          </g>
          <g
             id="g4611"
             style="fill:#1b5e20;stroke:#546e7a" />
          <g
             id="g4613"
             style="fill:#1b5e20;stroke:#546e7a" />
          <g
             id="g4615"
             style="fill:#1b5e20;stroke:#546e7a" />
          <g
             id="g4617"
             style="fill:#1b5e20;stroke:#546e7a" />
          <g
             id="g4619"
             style="fill:#1b5e20;stroke:#546e7a" />
          <g
             id="g4621"
             style="fill:#1b5e20;stroke:#546e7a" />
          <g
             id="g4623"
             style="fill:#1b5e20;stroke:#546e7a" />
          <g
             id="g4625"
             style="fill:#1b5e20;stroke:#546e7a" />
          <g
             id="g4627"
             style="fill:#1b5e20;stroke:#546e7a" />
          <g
             id="g4629"
             style="fill:#1b5e20;stroke:#546e7a" />
          <g
             id="g4631"
             style="fill:#1b5e20;stroke:#546e7a" />
          <g
             id="g4633"
             style="fill:#1b5e20;stroke:#546e7a" />
          <g
             id="g4635"
             style="fill:#1b5e20;stroke:#546e7a" />
          <g
             id="g4637"
             style="fill:#1b5e20;stroke:#546e7a" />
          <g
             id="g4639"
             style="fill:#1b5e20;stroke:#546e7a" />
        </g>
      </g>
    </g>
    <g
       style="stroke:#546e7a"
       transform="translate(1364.409,-855.44825)"
       id="g5516">
      <rect
         style="opacity:1;fill:none;fill-opacity:1;stroke:#546e7a;stroke-width:3.4567759;stroke-linejoin:miter;stroke-miterlimit:4;stroke-dasharray:none;stroke-opacity:1"
         id="rect4993"
         width="159.9873"
         height="159.9873"
         x="621.69824"
         y="677.99261"
         ry="48.417206"
         rx="48.417206" />
      <text
         xml:space="preserve"
         style="font-style:normal;font-weight:normal;font-size:21.45783043px;line-height:125%;font-family:sans-serif;letter-spacing:0px;word-spacing:0px;fill:#546e7a;fill-opacity:1;stroke:#546e7a;stroke-width:0.69135523px;stroke-linecap:butt;stroke-linejoin:miter;stroke-opacity:1"
         x="692.30487"
         y="816.15173"
         id="text4995"><tspan
           style="fill:#546e7a;stroke:#546e7a;stroke-width:0.69135523px"
           id="tspan4997"
           x="692.30487"
           y="816.15173">Spark</tspan></text>
      <rect
         rx="2.7377908"
         style="opacity:1;fill:none;fill-opacity:1;stroke:#546e7a;stroke-width:1.87412536;stroke-linejoin:miter;stroke-miterlimit:4;stroke-dasharray:none;stroke-opacity:1"
         id="rect5001"
         width="21.535563"
         height="21.535563"
         x="740.5603"
         y="-662.1051"
         ry="2.7377908"
         transform="matrix(0,1,-1,0,0,0)" />
      <rect
         rx="2.7377908"
         transform="matrix(0,1,-1,0,0,0)"
         ry="2.7377908"
         y="-694.63464"
         x="740.5603"
         height="21.535563"
         width="21.535563"
         id="rect5059"
         style="opacity:1;fill:none;fill-opacity:1;stroke:#546e7a;stroke-width:1.87412536;stroke-linejoin:miter;stroke-miterlimit:4;stroke-dasharray:none;stroke-opacity:1" />
      <rect
         rx="2.7377908"
         style="opacity:1;fill:none;fill-opacity:1;stroke:#546e7a;stroke-width:1.87412536;stroke-linejoin:miter;stroke-miterlimit:4;stroke-dasharray:none;stroke-opacity:1"
         id="rect5061"
         width="21.535563"
         height="21.535563"
         x="740.5603"
         y="-727.16425"
         ry="2.7377908"
         transform="matrix(0,1,-1,0,0,0)" />
      <rect
         rx="2.7377908"
         transform="matrix(0,1,-1,0,0,0)"
         ry="2.7377908"
         y="-759.69385"
         x="740.5603"
         height="21.535563"
         width="21.535563"
         id="rect5063"
         style="opacity:1;fill:none;fill-opacity:1;stroke:#546e7a;stroke-width:1.87412536;stroke-linejoin:miter;stroke-miterlimit:4;stroke-dasharray:none;stroke-opacity:1" />
      <path
         id="path5065"
         d="m 651.97111,761.4649 0,15.11996"
         style="fill:none;fill-rule:evenodd;stroke:#546e7a;stroke-width:2.71079946;stroke-linecap:butt;stroke-linejoin:miter;stroke-miterlimit:4;stroke-dasharray:none;stroke-opacity:1" />
      <path
         id="path5067"
         d="m 635.60717,776.41484 132.0348,0"
         style="fill:none;fill-rule:evenodd;stroke:#546e7a;stroke-width:2.71079946;stroke-linecap:butt;stroke-linejoin:miter;stroke-miterlimit:4;stroke-dasharray:none;stroke-opacity:1" />
      <path
         style="fill:none;fill-rule:evenodd;stroke:#546e7a;stroke-width:2.71079946;stroke-linecap:butt;stroke-linejoin:miter;stroke-miterlimit:4;stroke-dasharray:none;stroke-opacity:1"
         d="m 684.5007,761.4649 0,15.11996"
         id="path5069" />
      <path
         id="path5071"
         d="m 717.0303,761.4649 0,15.11996"
         style="fill:none;fill-rule:evenodd;stroke:#546e7a;stroke-width:2.71079946;stroke-linecap:butt;stroke-linejoin:miter;stroke-miterlimit:4;stroke-dasharray:none;stroke-opacity:1" />
      <path
         style="fill:none;fill-rule:evenodd;stroke:#546e7a;stroke-width:2.71079946;stroke-linecap:butt;stroke-linejoin:miter;stroke-miterlimit:4;stroke-dasharray:none;stroke-opacity:1"
         d="m 749.55989,761.4649 0,15.11996"
         id="path5073" />
      <g
         id="g5248"
         transform="matrix(0.01220302,0,0,0.01220302,645.23554,745.22779)"
         style="fill:#33691e;stroke:#546e7a">
        <path
           id="path5250"
           d="m 987.5,633 c 1.4,8.4 1.1,18.6 -1.1,30.5 -2.1,11.9 -5.6,24 -10.5,36.3 -4.9,12.2 -10.9,23.2 -17.9,33 -7,9.8 -14.7,16.8 -23.1,21 -8.4,4.2 -15.8,6.3 -22.1,6.3 -6.3,0 -13.3,-1.4 -21,-4.2 -7,-2.1 -15.8,-4 -26.3,-5.8 -10.5,-1.8 -21.2,-2.1 -32.1,-1.1 -10.9,1.1 -21.7,3.3 -32.6,6.8 -10.9,3.5 -20.1,9.5 -27.9,17.9 -16.8,17.5 -26.6,37.5 -29.4,59.9 -2.8,22.4 0.4,43.8 9.5,64.1 7,14 6,28 -3.2,42 -4.2,5.6 -10.9,11.4 -20,17.3 -9.1,6 -19.1,11.4 -30,16.3 -10.9,4.9 -22.2,8.8 -34.2,11.6 -11.9,2.8 -22.4,4.2 -31.5,4.2 -6.3,0 -12.3,-2.5 -17.9,-7.4 -5.6,-4.9 -9.5,-10.2 -11.6,-15.8 l -1.1,0 c -7.7,-21.7 -20.8,-40.5 -39.4,-56.2 -18.6,-15.8 -40.1,-23.6 -64.6,-23.6 -23.8,0 -45.4,7.9 -64.6,23.6 -19.3,15.8 -32.8,34.2 -40.5,55.2 -3.5,8.4 -8.8,14.5 -15.8,18.4 -7,3.9 -14.7,5.8 -23.1,5.8 -9.8,0 -20.8,-1.8 -33.1,-5.3 -12.3,-3.5 -24.5,-7.9 -36.8,-13.1 -12.3,-5.3 -23.3,-11.4 -33.1,-18.4 -9.8,-7 -17.2,-14 -22.1,-21 -3.5,-4.9 -5.4,-10.7 -5.8,-17.3 -0.4,-6.7 2.3,-15.9 7.9,-27.9 7.7,-16.1 10.7,-34.5 8.9,-55.2 -1.8,-20.7 -10.7,-39.8 -26.8,-57.3 -9.8,-10.5 -21.7,-17.3 -35.7,-20.5 -14,-3.1 -27.3,-4.4 -39.9,-3.7 -14.7,0.7 -29.8,3.5 -45.2,8.4 -9.8,2.8 -19.6,2.1 -29.4,-2.1 C 56.7,752.9 49.5,746.4 42.8,736.3 36.1,726.1 30.2,714.9 24.9,702.7 20,690.6 16,678 13.2,665 10.4,652 9.7,641.4 11.1,632.9 c 2.1,-15.4 9.1,-25.2 21,-29.4 21,-8.4 39.9,-22.2 56.8,-41.5 16.8,-19.3 25.2,-40.8 25.2,-64.6 0,-24.5 -8.4,-45.9 -25.2,-64.1 C 72,415 53.1,401.7 32.1,393.3 25.8,391.2 20.5,386.1 16.3,378.1 12.1,370 10,361.8 10,353.4 c 0,-9.1 1.4,-19.3 4.2,-30.5 2.8,-11.2 6.5,-22.1 11,-32.6 4.6,-10.5 9.8,-20.1 15.8,-28.9 6,-8.8 12.4,-15.2 19.4,-19.4 5.6,-3.5 11,-4.9 16.3,-4.2 5.3,0.7 11,2.1 17.3,4.2 21,8.4 42.9,11 65.7,7.9 22.8,-3.2 42.9,-13.1 60.4,-30 8.4,-8.4 14.5,-18.7 18.4,-31 3.9,-12.3 6.3,-24.4 7.4,-36.3 1,-11.9 1,-22.8 0,-32.6 -1.1,-9.8 -1.9,-16.8 -2.6,-21 -1.4,-4.2 -2.6,-9.1 -3.7,-14.7 -1.1,-5.6 -0.5,-10.5 1.6,-14.7 4.2,-9.8 11.7,-18.4 22.6,-25.8 10.9,-7.4 22.6,-13.5 35.2,-18.4 12.6,-4.9 24.9,-8.6 36.8,-11 11.9,-2.5 21.4,-3.7 28.4,-3.7 9.1,0 16.3,3 21.5,8.9 5.3,6 8.9,12.1 11,18.4 7.7,18.9 20.3,35.6 37.8,49.9 17.5,14.4 38.2,21.5 62,21.5 24.5,0 46.2,-6.8 65.2,-20.5 18.9,-13.7 32.2,-31 39.9,-52 2.8,-5.6 7.2,-11.4 13.1,-17.3 6,-6 12.1,-8.9 18.4,-8.9 9.8,0 20.5,1.4 32.1,4.2 11.6,2.8 22.9,6.7 34.2,11.6 11.2,4.9 21.5,11.2 31,18.9 9.5,7.7 17,16.1 22.6,25.2 3.5,5.6 4.6,11.7 3.2,18.4 -1.4,6.7 -2.8,11.4 -4.2,14.2 -9.1,20.3 -11.9,41.7 -8.4,64.1 3.5,22.4 13.7,42 30.5,58.9 16.8,16.8 37.5,26.1 62,27.8 24.5,1.8 47.3,-2.3 68.3,-12.1 5.6,-3.5 12.4,-4.9 20.5,-4.2 8.1,0.7 14.9,3.9 20.5,9.5 10.5,9.8 19.8,24.7 27.9,44.7 8.1,20 13.5,40.1 16.3,60.4 1.4,11.9 -0.5,21.2 -5.8,27.9 -5.3,6.7 -10.7,11 -16.3,13.1 -21.7,7.7 -40.3,21.2 -55.7,40.5 -15.4,19.3 -23.1,41.2 -23.1,65.7 0,23.8 6.5,44.7 19.4,62.5 13,17.9 29.9,30.7 51,38.4 4.9,2.8 9.1,5.6 12.6,8.4 7.7,6.3 13,14.3 15.8,24.2 l 0,0 z m -488.8,94.6 c 31.5,0 61.3,-6 89.3,-17.9 28,-11.9 52.4,-28.4 73,-49.4 20.7,-21 37,-45.4 48.9,-73 11.9,-27.7 17.9,-57.3 17.9,-88.8 0,-31.5 -6,-61.1 -17.9,-88.8 C 698,382 681.7,357.8 661,337.2 c -20.7,-20.7 -45,-37 -73,-48.9 -28,-11.9 -57.8,-17.9 -89.3,-17.9 -31.5,0 -61.1,6 -88.8,17.9 -27.7,11.9 -51.8,28.2 -72.5,48.9 -20.7,20.7 -37,44.9 -48.9,72.5 -11.9,27.7 -17.9,57.3 -17.9,88.8 0,31.5 6,61.1 17.9,88.8 11.9,27.7 28.2,52 48.9,73 20.7,21 44.8,37.5 72.5,49.4 27.7,11.9 57.3,17.9 88.8,17.9 l 0,0 z"
           style="fill:#546e7a;stroke:#546e7a" />
      </g>
      <g
         style="fill:#33691e;stroke:#546e7a"
         transform="matrix(0.01220302,0,0,0.01220302,677.76508,745.22779)"
         id="g5504">
        <path
           style="fill:#546e7a;stroke:#546e7a"
           d="m 987.5,633 c 1.4,8.4 1.1,18.6 -1.1,30.5 -2.1,11.9 -5.6,24 -10.5,36.3 -4.9,12.2 -10.9,23.2 -17.9,33 -7,9.8 -14.7,16.8 -23.1,21 -8.4,4.2 -15.8,6.3 -22.1,6.3 -6.3,0 -13.3,-1.4 -21,-4.2 -7,-2.1 -15.8,-4 -26.3,-5.8 -10.5,-1.8 -21.2,-2.1 -32.1,-1.1 -10.9,1.1 -21.7,3.3 -32.6,6.8 -10.9,3.5 -20.1,9.5 -27.9,17.9 -16.8,17.5 -26.6,37.5 -29.4,59.9 -2.8,22.4 0.4,43.8 9.5,64.1 7,14 6,28 -3.2,42 -4.2,5.6 -10.9,11.4 -20,17.3 -9.1,6 -19.1,11.4 -30,16.3 -10.9,4.9 -22.2,8.8 -34.2,11.6 -11.9,2.8 -22.4,4.2 -31.5,4.2 -6.3,0 -12.3,-2.5 -17.9,-7.4 -5.6,-4.9 -9.5,-10.2 -11.6,-15.8 l -1.1,0 c -7.7,-21.7 -20.8,-40.5 -39.4,-56.2 -18.6,-15.8 -40.1,-23.6 -64.6,-23.6 -23.8,0 -45.4,7.9 -64.6,23.6 -19.3,15.8 -32.8,34.2 -40.5,55.2 -3.5,8.4 -8.8,14.5 -15.8,18.4 -7,3.9 -14.7,5.8 -23.1,5.8 -9.8,0 -20.8,-1.8 -33.1,-5.3 -12.3,-3.5 -24.5,-7.9 -36.8,-13.1 -12.3,-5.3 -23.3,-11.4 -33.1,-18.4 -9.8,-7 -17.2,-14 -22.1,-21 -3.5,-4.9 -5.4,-10.7 -5.8,-17.3 -0.4,-6.7 2.3,-15.9 7.9,-27.9 7.7,-16.1 10.7,-34.5 8.9,-55.2 -1.8,-20.7 -10.7,-39.8 -26.8,-57.3 -9.8,-10.5 -21.7,-17.3 -35.7,-20.5 -14,-3.1 -27.3,-4.4 -39.9,-3.7 -14.7,0.7 -29.8,3.5 -45.2,8.4 -9.8,2.8 -19.6,2.1 -29.4,-2.1 C 56.7,752.9 49.5,746.4 42.8,736.3 36.1,726.1 30.2,714.9 24.9,702.7 20,690.6 16,678 13.2,665 10.4,652 9.7,641.4 11.1,632.9 c 2.1,-15.4 9.1,-25.2 21,-29.4 21,-8.4 39.9,-22.2 56.8,-41.5 16.8,-19.3 25.2,-40.8 25.2,-64.6 0,-24.5 -8.4,-45.9 -25.2,-64.1 C 72,415 53.1,401.7 32.1,393.3 25.8,391.2 20.5,386.1 16.3,378.1 12.1,370 10,361.8 10,353.4 c 0,-9.1 1.4,-19.3 4.2,-30.5 2.8,-11.2 6.5,-22.1 11,-32.6 4.6,-10.5 9.8,-20.1 15.8,-28.9 6,-8.8 12.4,-15.2 19.4,-19.4 5.6,-3.5 11,-4.9 16.3,-4.2 5.3,0.7 11,2.1 17.3,4.2 21,8.4 42.9,11 65.7,7.9 22.8,-3.2 42.9,-13.1 60.4,-30 8.4,-8.4 14.5,-18.7 18.4,-31 3.9,-12.3 6.3,-24.4 7.4,-36.3 1,-11.9 1,-22.8 0,-32.6 -1.1,-9.8 -1.9,-16.8 -2.6,-21 -1.4,-4.2 -2.6,-9.1 -3.7,-14.7 -1.1,-5.6 -0.5,-10.5 1.6,-14.7 4.2,-9.8 11.7,-18.4 22.6,-25.8 10.9,-7.4 22.6,-13.5 35.2,-18.4 12.6,-4.9 24.9,-8.6 36.8,-11 11.9,-2.5 21.4,-3.7 28.4,-3.7 9.1,0 16.3,3 21.5,8.9 5.3,6 8.9,12.1 11,18.4 7.7,18.9 20.3,35.6 37.8,49.9 17.5,14.4 38.2,21.5 62,21.5 24.5,0 46.2,-6.8 65.2,-20.5 18.9,-13.7 32.2,-31 39.9,-52 2.8,-5.6 7.2,-11.4 13.1,-17.3 6,-6 12.1,-8.9 18.4,-8.9 9.8,0 20.5,1.4 32.1,4.2 11.6,2.8 22.9,6.7 34.2,11.6 11.2,4.9 21.5,11.2 31,18.9 9.5,7.7 17,16.1 22.6,25.2 3.5,5.6 4.6,11.7 3.2,18.4 -1.4,6.7 -2.8,11.4 -4.2,14.2 -9.1,20.3 -11.9,41.7 -8.4,64.1 3.5,22.4 13.7,42 30.5,58.9 16.8,16.8 37.5,26.1 62,27.8 24.5,1.8 47.3,-2.3 68.3,-12.1 5.6,-3.5 12.4,-4.9 20.5,-4.2 8.1,0.7 14.9,3.9 20.5,9.5 10.5,9.8 19.8,24.7 27.9,44.7 8.1,20 13.5,40.1 16.3,60.4 1.4,11.9 -0.5,21.2 -5.8,27.9 -5.3,6.7 -10.7,11 -16.3,13.1 -21.7,7.7 -40.3,21.2 -55.7,40.5 -15.4,19.3 -23.1,41.2 -23.1,65.7 0,23.8 6.5,44.7 19.4,62.5 13,17.9 29.9,30.7 51,38.4 4.9,2.8 9.1,5.6 12.6,8.4 7.7,6.3 13,14.3 15.8,24.2 l 0,0 z m -488.8,94.6 c 31.5,0 61.3,-6 89.3,-17.9 28,-11.9 52.4,-28.4 73,-49.4 20.7,-21 37,-45.4 48.9,-73 11.9,-27.7 17.9,-57.3 17.9,-88.8 0,-31.5 -6,-61.1 -17.9,-88.8 C 698,382 681.7,357.8 661,337.2 c -20.7,-20.7 -45,-37 -73,-48.9 -28,-11.9 -57.8,-17.9 -89.3,-17.9 -31.5,0 -61.1,6 -88.8,17.9 -27.7,11.9 -51.8,28.2 -72.5,48.9 -20.7,20.7 -37,44.9 -48.9,72.5 -11.9,27.7 -17.9,57.3 -17.9,88.8 0,31.5 6,61.1 17.9,88.8 11.9,27.7 28.2,52 48.9,73 20.7,21 44.8,37.5 72.5,49.4 27.7,11.9 57.3,17.9 88.8,17.9 l 0,0 z"
           id="path5506" />
      </g>
      <g
         id="g5508"
         transform="matrix(0.01220302,0,0,0.01220302,710.29468,745.22779)"
         style="fill:#33691e;stroke:#546e7a">
        <path
           id="path5510"
           d="m 987.5,633 c 1.4,8.4 1.1,18.6 -1.1,30.5 -2.1,11.9 -5.6,24 -10.5,36.3 -4.9,12.2 -10.9,23.2 -17.9,33 -7,9.8 -14.7,16.8 -23.1,21 -8.4,4.2 -15.8,6.3 -22.1,6.3 -6.3,0 -13.3,-1.4 -21,-4.2 -7,-2.1 -15.8,-4 -26.3,-5.8 -10.5,-1.8 -21.2,-2.1 -32.1,-1.1 -10.9,1.1 -21.7,3.3 -32.6,6.8 -10.9,3.5 -20.1,9.5 -27.9,17.9 -16.8,17.5 -26.6,37.5 -29.4,59.9 -2.8,22.4 0.4,43.8 9.5,64.1 7,14 6,28 -3.2,42 -4.2,5.6 -10.9,11.4 -20,17.3 -9.1,6 -19.1,11.4 -30,16.3 -10.9,4.9 -22.2,8.8 -34.2,11.6 -11.9,2.8 -22.4,4.2 -31.5,4.2 -6.3,0 -12.3,-2.5 -17.9,-7.4 -5.6,-4.9 -9.5,-10.2 -11.6,-15.8 l -1.1,0 c -7.7,-21.7 -20.8,-40.5 -39.4,-56.2 -18.6,-15.8 -40.1,-23.6 -64.6,-23.6 -23.8,0 -45.4,7.9 -64.6,23.6 -19.3,15.8 -32.8,34.2 -40.5,55.2 -3.5,8.4 -8.8,14.5 -15.8,18.4 -7,3.9 -14.7,5.8 -23.1,5.8 -9.8,0 -20.8,-1.8 -33.1,-5.3 -12.3,-3.5 -24.5,-7.9 -36.8,-13.1 -12.3,-5.3 -23.3,-11.4 -33.1,-18.4 -9.8,-7 -17.2,-14 -22.1,-21 -3.5,-4.9 -5.4,-10.7 -5.8,-17.3 -0.4,-6.7 2.3,-15.9 7.9,-27.9 7.7,-16.1 10.7,-34.5 8.9,-55.2 -1.8,-20.7 -10.7,-39.8 -26.8,-57.3 -9.8,-10.5 -21.7,-17.3 -35.7,-20.5 -14,-3.1 -27.3,-4.4 -39.9,-3.7 -14.7,0.7 -29.8,3.5 -45.2,8.4 -9.8,2.8 -19.6,2.1 -29.4,-2.1 C 56.7,752.9 49.5,746.4 42.8,736.3 36.1,726.1 30.2,714.9 24.9,702.7 20,690.6 16,678 13.2,665 10.4,652 9.7,641.4 11.1,632.9 c 2.1,-15.4 9.1,-25.2 21,-29.4 21,-8.4 39.9,-22.2 56.8,-41.5 16.8,-19.3 25.2,-40.8 25.2,-64.6 0,-24.5 -8.4,-45.9 -25.2,-64.1 C 72,415 53.1,401.7 32.1,393.3 25.8,391.2 20.5,386.1 16.3,378.1 12.1,370 10,361.8 10,353.4 c 0,-9.1 1.4,-19.3 4.2,-30.5 2.8,-11.2 6.5,-22.1 11,-32.6 4.6,-10.5 9.8,-20.1 15.8,-28.9 6,-8.8 12.4,-15.2 19.4,-19.4 5.6,-3.5 11,-4.9 16.3,-4.2 5.3,0.7 11,2.1 17.3,4.2 21,8.4 42.9,11 65.7,7.9 22.8,-3.2 42.9,-13.1 60.4,-30 8.4,-8.4 14.5,-18.7 18.4,-31 3.9,-12.3 6.3,-24.4 7.4,-36.3 1,-11.9 1,-22.8 0,-32.6 -1.1,-9.8 -1.9,-16.8 -2.6,-21 -1.4,-4.2 -2.6,-9.1 -3.7,-14.7 -1.1,-5.6 -0.5,-10.5 1.6,-14.7 4.2,-9.8 11.7,-18.4 22.6,-25.8 10.9,-7.4 22.6,-13.5 35.2,-18.4 12.6,-4.9 24.9,-8.6 36.8,-11 11.9,-2.5 21.4,-3.7 28.4,-3.7 9.1,0 16.3,3 21.5,8.9 5.3,6 8.9,12.1 11,18.4 7.7,18.9 20.3,35.6 37.8,49.9 17.5,14.4 38.2,21.5 62,21.5 24.5,0 46.2,-6.8 65.2,-20.5 18.9,-13.7 32.2,-31 39.9,-52 2.8,-5.6 7.2,-11.4 13.1,-17.3 6,-6 12.1,-8.9 18.4,-8.9 9.8,0 20.5,1.4 32.1,4.2 11.6,2.8 22.9,6.7 34.2,11.6 11.2,4.9 21.5,11.2 31,18.9 9.5,7.7 17,16.1 22.6,25.2 3.5,5.6 4.6,11.7 3.2,18.4 -1.4,6.7 -2.8,11.4 -4.2,14.2 -9.1,20.3 -11.9,41.7 -8.4,64.1 3.5,22.4 13.7,42 30.5,58.9 16.8,16.8 37.5,26.1 62,27.8 24.5,1.8 47.3,-2.3 68.3,-12.1 5.6,-3.5 12.4,-4.9 20.5,-4.2 8.1,0.7 14.9,3.9 20.5,9.5 10.5,9.8 19.8,24.7 27.9,44.7 8.1,20 13.5,40.1 16.3,60.4 1.4,11.9 -0.5,21.2 -5.8,27.9 -5.3,6.7 -10.7,11 -16.3,13.1 -21.7,7.7 -40.3,21.2 -55.7,40.5 -15.4,19.3 -23.1,41.2 -23.1,65.7 0,23.8 6.5,44.7 19.4,62.5 13,17.9 29.9,30.7 51,38.4 4.9,2.8 9.1,5.6 12.6,8.4 7.7,6.3 13,14.3 15.8,24.2 l 0,0 z m -488.8,94.6 c 31.5,0 61.3,-6 89.3,-17.9 28,-11.9 52.4,-28.4 73,-49.4 20.7,-21 37,-45.4 48.9,-73 11.9,-27.7 17.9,-57.3 17.9,-88.8 0,-31.5 -6,-61.1 -17.9,-88.8 C 698,382 681.7,357.8 661,337.2 c -20.7,-20.7 -45,-37 -73,-48.9 -28,-11.9 -57.8,-17.9 -89.3,-17.9 -31.5,0 -61.1,6 -88.8,17.9 -27.7,11.9 -51.8,28.2 -72.5,48.9 -20.7,20.7 -37,44.9 -48.9,72.5 -11.9,27.7 -17.9,57.3 -17.9,88.8 0,31.5 6,61.1 17.9,88.8 11.9,27.7 28.2,52 48.9,73 20.7,21 44.8,37.5 72.5,49.4 27.7,11.9 57.3,17.9 88.8,17.9 l 0,0 z"
           style="fill:#546e7a;stroke:#546e7a" />
      </g>
      <g
         style="fill:#33691e;stroke:#546e7a"
         transform="matrix(0.01220302,0,0,0.01220302,742.82428,745.22779)"
         id="g5512">
        <path
           style="fill:#546e7a;stroke:#546e7a"
           d="m 987.5,633 c 1.4,8.4 1.1,18.6 -1.1,30.5 -2.1,11.9 -5.6,24 -10.5,36.3 -4.9,12.2 -10.9,23.2 -17.9,33 -7,9.8 -14.7,16.8 -23.1,21 -8.4,4.2 -15.8,6.3 -22.1,6.3 -6.3,0 -13.3,-1.4 -21,-4.2 -7,-2.1 -15.8,-4 -26.3,-5.8 -10.5,-1.8 -21.2,-2.1 -32.1,-1.1 -10.9,1.1 -21.7,3.3 -32.6,6.8 -10.9,3.5 -20.1,9.5 -27.9,17.9 -16.8,17.5 -26.6,37.5 -29.4,59.9 -2.8,22.4 0.4,43.8 9.5,64.1 7,14 6,28 -3.2,42 -4.2,5.6 -10.9,11.4 -20,17.3 -9.1,6 -19.1,11.4 -30,16.3 -10.9,4.9 -22.2,8.8 -34.2,11.6 -11.9,2.8 -22.4,4.2 -31.5,4.2 -6.3,0 -12.3,-2.5 -17.9,-7.4 -5.6,-4.9 -9.5,-10.2 -11.6,-15.8 l -1.1,0 c -7.7,-21.7 -20.8,-40.5 -39.4,-56.2 -18.6,-15.8 -40.1,-23.6 -64.6,-23.6 -23.8,0 -45.4,7.9 -64.6,23.6 -19.3,15.8 -32.8,34.2 -40.5,55.2 -3.5,8.4 -8.8,14.5 -15.8,18.4 -7,3.9 -14.7,5.8 -23.1,5.8 -9.8,0 -20.8,-1.8 -33.1,-5.3 -12.3,-3.5 -24.5,-7.9 -36.8,-13.1 -12.3,-5.3 -23.3,-11.4 -33.1,-18.4 -9.8,-7 -17.2,-14 -22.1,-21 -3.5,-4.9 -5.4,-10.7 -5.8,-17.3 -0.4,-6.7 2.3,-15.9 7.9,-27.9 7.7,-16.1 10.7,-34.5 8.9,-55.2 -1.8,-20.7 -10.7,-39.8 -26.8,-57.3 -9.8,-10.5 -21.7,-17.3 -35.7,-20.5 -14,-3.1 -27.3,-4.4 -39.9,-3.7 -14.7,0.7 -29.8,3.5 -45.2,8.4 -9.8,2.8 -19.6,2.1 -29.4,-2.1 C 56.7,752.9 49.5,746.4 42.8,736.3 36.1,726.1 30.2,714.9 24.9,702.7 20,690.6 16,678 13.2,665 10.4,652 9.7,641.4 11.1,632.9 c 2.1,-15.4 9.1,-25.2 21,-29.4 21,-8.4 39.9,-22.2 56.8,-41.5 16.8,-19.3 25.2,-40.8 25.2,-64.6 0,-24.5 -8.4,-45.9 -25.2,-64.1 C 72,415 53.1,401.7 32.1,393.3 25.8,391.2 20.5,386.1 16.3,378.1 12.1,370 10,361.8 10,353.4 c 0,-9.1 1.4,-19.3 4.2,-30.5 2.8,-11.2 6.5,-22.1 11,-32.6 4.6,-10.5 9.8,-20.1 15.8,-28.9 6,-8.8 12.4,-15.2 19.4,-19.4 5.6,-3.5 11,-4.9 16.3,-4.2 5.3,0.7 11,2.1 17.3,4.2 21,8.4 42.9,11 65.7,7.9 22.8,-3.2 42.9,-13.1 60.4,-30 8.4,-8.4 14.5,-18.7 18.4,-31 3.9,-12.3 6.3,-24.4 7.4,-36.3 1,-11.9 1,-22.8 0,-32.6 -1.1,-9.8 -1.9,-16.8 -2.6,-21 -1.4,-4.2 -2.6,-9.1 -3.7,-14.7 -1.1,-5.6 -0.5,-10.5 1.6,-14.7 4.2,-9.8 11.7,-18.4 22.6,-25.8 10.9,-7.4 22.6,-13.5 35.2,-18.4 12.6,-4.9 24.9,-8.6 36.8,-11 11.9,-2.5 21.4,-3.7 28.4,-3.7 9.1,0 16.3,3 21.5,8.9 5.3,6 8.9,12.1 11,18.4 7.7,18.9 20.3,35.6 37.8,49.9 17.5,14.4 38.2,21.5 62,21.5 24.5,0 46.2,-6.8 65.2,-20.5 18.9,-13.7 32.2,-31 39.9,-52 2.8,-5.6 7.2,-11.4 13.1,-17.3 6,-6 12.1,-8.9 18.4,-8.9 9.8,0 20.5,1.4 32.1,4.2 11.6,2.8 22.9,6.7 34.2,11.6 11.2,4.9 21.5,11.2 31,18.9 9.5,7.7 17,16.1 22.6,25.2 3.5,5.6 4.6,11.7 3.2,18.4 -1.4,6.7 -2.8,11.4 -4.2,14.2 -9.1,20.3 -11.9,41.7 -8.4,64.1 3.5,22.4 13.7,42 30.5,58.9 16.8,16.8 37.5,26.1 62,27.8 24.5,1.8 47.3,-2.3 68.3,-12.1 5.6,-3.5 12.4,-4.9 20.5,-4.2 8.1,0.7 14.9,3.9 20.5,9.5 10.5,9.8 19.8,24.7 27.9,44.7 8.1,20 13.5,40.1 16.3,60.4 1.4,11.9 -0.5,21.2 -5.8,27.9 -5.3,6.7 -10.7,11 -16.3,13.1 -21.7,7.7 -40.3,21.2 -55.7,40.5 -15.4,19.3 -23.1,41.2 -23.1,65.7 0,23.8 6.5,44.7 19.4,62.5 13,17.9 29.9,30.7 51,38.4 4.9,2.8 9.1,5.6 12.6,8.4 7.7,6.3 13,14.3 15.8,24.2 l 0,0 z m -488.8,94.6 c 31.5,0 61.3,-6 89.3,-17.9 28,-11.9 52.4,-28.4 73,-49.4 20.7,-21 37,-45.4 48.9,-73 11.9,-27.7 17.9,-57.3 17.9,-88.8 0,-31.5 -6,-61.1 -17.9,-88.8 C 698,382 681.7,357.8 661,337.2 c -20.7,-20.7 -45,-37 -73,-48.9 -28,-11.9 -57.8,-17.9 -89.3,-17.9 -31.5,0 -61.1,6 -88.8,17.9 -27.7,11.9 -51.8,28.2 -72.5,48.9 -20.7,20.7 -37,44.9 -48.9,72.5 -11.9,27.7 -17.9,57.3 -17.9,88.8 0,31.5 6,61.1 17.9,88.8 11.9,27.7 28.2,52 48.9,73 20.7,21 44.8,37.5 72.5,49.4 27.7,11.9 57.3,17.9 88.8,17.9 l 0,0 z"
           id="path5514" />
      </g>
    </g>
  </g>
  <g
     id="g4976"
     transform="translate(322.8727,-276.62098)"
     style="stroke:#546e7a">
    <rect
       rx="48.417206"
       ry="48.417206"
       y="499.2926"
       x="125.44316"
       height="159.9873"
       width="159.9873"
       id="rect4346"
       style="opacity:1;fill:none;fill-opacity:1;stroke:#546e7a;stroke-width:3.4567759;stroke-linejoin:miter;stroke-miterlimit:4;stroke-dasharray:none;stroke-opacity:1" />
    <text
       id="text4348"
       y="641.45178"
       x="169.19583"
       style="font-style:normal;font-weight:normal;font-size:21.45783043px;line-height:125%;font-family:sans-serif;letter-spacing:0px;word-spacing:0px;fill:#546e7a;fill-opacity:1;stroke:#546e7a;stroke-width:0.69135523px;stroke-linecap:butt;stroke-linejoin:miter;stroke-opacity:1"
       xml:space="preserve"><tspan
         y="641.45178"
         x="169.19583"
         id="tspan4350"
         style="fill:#546e7a;stroke:#546e7a;stroke-width:0.69135523px">Datamot</tspan></text>
    <g
       transform="matrix(1.4058941,0,0,1.4058941,9.1682226,265.37255)"
       id="g8343"
       style="stroke:#546e7a">
      <path
         id="path4359"
         d="m 123.30484,182.04258 c -5.54736,-2.63854 2.30828,-7.69321 3.27189,-4.22555 0.96361,3.46768 0.43676,7.27663 0.43676,7.27663 z"
         style="fill:#546e7a;fill-rule:evenodd;stroke:#546e7a;stroke-width:0.76490206;stroke-linecap:butt;stroke-linejoin:miter;stroke-miterlimit:4;stroke-dasharray:none;stroke-opacity:1" />
      <path
         style="fill:#546e7a;fill-rule:evenodd;stroke:#546e7a;stroke-width:0.78864574;stroke-linecap:butt;stroke-linejoin:miter;stroke-miterlimit:4;stroke-dasharray:none;stroke-opacity:1"
         d="m 153.23393,183.39197 c 5.72102,-1.05387 -0.22583,-7.6029 -1.95716,-4.66713 -1.73136,2.93577 -2.18302,6.54904 -2.18302,6.54904 z"
         id="path4361" />
      <path
         style="opacity:1;fill:#ffffff;fill-opacity:1;stroke:#546e7a;stroke-width:0.95437974;stroke-linejoin:miter;stroke-miterlimit:4;stroke-dasharray:none;stroke-opacity:1"
         d="m 158.21382,200.97395 c -1.71816,6.87019 -13.06595,7.77801 -20.09323,6.90117 -7.13702,-0.89054 -18.05887,-4.61625 -18.05901,-11.80862 -1.7e-4,-8.31257 12.60822,-14.5558 20.87114,-13.64862 7.68977,0.84426 19.33176,10.35636 17.2811,18.55607 z"
         id="ellipse4363" />
      <path
         id="path4365"
         d="m 168.46872,221.55682 c -0.28125,7.97566 -4.79149,16.53654 -11.7555,20.85714 -9.11525,5.65529 -22.5568,6.48613 -32.59649,2.46972 -3.36656,-1.34681 -5.73616,-4.74654 -6.98682,-7.99603 -4.43902,-11.53345 -6.04876,-25.81999 -0.29681,-36.82196 1.67214,-3.19834 5.42566,-5.66519 9.04489,-6.43103 10.81351,-2.28818 23.79022,-0.19541 32.49111,6.62091 6.18589,4.84606 10.37656,13.44805 10.09962,21.30125 z"
         style="opacity:1;fill:#ffffff;fill-opacity:1;stroke:#546e7a;stroke-width:0.79816288;stroke-linejoin:miter;stroke-miterlimit:4;stroke-dasharray:none;stroke-opacity:1" />
      <g
         style="stroke:#546e7a;stroke-width:1;stroke-miterlimit:4;stroke-dasharray:none"
         id="g4367"
         transform="translate(-22.129219,-51.87193)">
        <path
           style="fill:none;fill-rule:evenodd;stroke:#546e7a;stroke-width:0.47718987;stroke-linecap:butt;stroke-linejoin:miter;stroke-miterlimit:4;stroke-dasharray:none;stroke-opacity:1"
           d="m 173.25684,272.27278 5.80341,5.39852"
           id="path4369" />
        <path
           style="fill:none;fill-rule:evenodd;stroke:#546e7a;stroke-width:0.47718987;stroke-linecap:butt;stroke-linejoin:miter;stroke-miterlimit:4;stroke-dasharray:none;stroke-opacity:1"
           d="m 163.545,283.35741 c 0,0 7.30342,0.28893 12.37151,-8.48926"
           id="path4371" />
      </g>
      <circle
         r="2.1055155"
         cy="189.93085"
         cx="146.62305"
         id="circle4379"
         style="opacity:1;fill:#546e7a;fill-opacity:1;stroke:#546e7a;stroke-width:0.80000001;stroke-linejoin:miter;stroke-miterlimit:4;stroke-dasharray:none;stroke-opacity:1" />
      <circle
         style="opacity:1;fill:#546e7a;fill-opacity:1;stroke:#546e7a;stroke-width:0.80000001;stroke-linejoin:miter;stroke-miterlimit:4;stroke-dasharray:none;stroke-opacity:1"
         id="circle4402"
         cx="131.84294"
         cy="188.63293"
         r="2.1055155" />
    </g>
  </g>
  <g
     transform="translate(-1555.7799,-100.61468)"
     id="g6106">
    <g
       id="g5910"
       transform="translate(-58.746623,-23.189456)">
      <rect
         rx="48.417206"
         ry="48.417206"
         y="532.26862"
         x="2200.439"
         height="159.9873"
         width="306.38892"
         id="rect5782"
         style="opacity:1;fill:none;fill-opacity:1;stroke:#546e7a;stroke-width:3.4567759;stroke-linejoin:miter;stroke-miterlimit:4;stroke-dasharray:none;stroke-opacity:1" />
      <text
         id="text5784"
         y="674.01282"
         x="2257.0107"
         style="font-style:normal;font-weight:normal;font-size:21.45783043px;line-height:125%;font-family:sans-serif;letter-spacing:0px;word-spacing:0px;fill:#546e7a;fill-opacity:1;stroke:#546e7a;stroke-width:0.69135523px;stroke-linecap:butt;stroke-linejoin:miter;stroke-opacity:1"
         xml:space="preserve"><tspan
           y="674.01282"
           x="2257.0107"
           id="tspan5786"
           style="fill:#546e7a;stroke:#546e7a;stroke-width:0.69135523px">git, IDE</tspan></text>
      <path
         id="path5788"
         d="m 2288.2526,610.09469 -18.7744,0"
         style="fill:none;fill-rule:evenodd;stroke:#546e7a;stroke-width:2.49751258;stroke-linecap:butt;stroke-linejoin:miter;stroke-miterlimit:4;stroke-dasharray:none;stroke-opacity:1" />
      <g
         id="g5790"
         transform="translate(21.643489,-35.557166)">
        <rect
           style="opacity:1;fill:#ffffff;fill-opacity:1;stroke:#546e7a;stroke-width:2.47001338;stroke-linejoin:miter;stroke-miterlimit:4;stroke-dasharray:none;stroke-opacity:1"
           id="rect5792"
           width="71.566017"
           height="16.309217"
           x="2234.6301"
           y="585.22528"
           ry="3.5410225"
           rx="4.1416974" />
        <rect
           rx="5.1536775"
           ry="4.7247505"
           y="606.96887"
           x="2265.8948"
           height="21.761221"
           width="31.064375"
           id="rect5794"
           style="opacity:1;fill:#ffffff;fill-opacity:1;stroke:#546e7a;stroke-width:3.18268633;stroke-linejoin:miter;stroke-miterlimit:4;stroke-dasharray:none;stroke-opacity:1" />
        <path
           style="fill:none;fill-rule:evenodd;stroke:#546e7a;stroke-width:3.12187719;stroke-linecap:butt;stroke-linejoin:miter;stroke-miterlimit:4;stroke-dasharray:none;stroke-opacity:1"
           d="m 2247.1122,601.53442 0,71.53051"
           id="path5796" />
        <path
           id="path5798"
           d="m 2266.6091,617.57848 -18.7744,0"
           style="fill:none;fill-rule:evenodd;stroke:#546e7a;stroke-width:2.49751258;stroke-linecap:butt;stroke-linejoin:miter;stroke-miterlimit:4;stroke-dasharray:none;stroke-opacity:1" />
        <rect
           rx="4.1299906"
           ry="3.7862613"
           y="663.25128"
           x="2266.137"
           height="17.438738"
           width="48.074322"
           id="rect5800"
           style="opacity:1;fill:#ffffff;fill-opacity:1;stroke:#546e7a;stroke-width:2.55050182;stroke-linejoin:miter;stroke-miterlimit:4;stroke-dasharray:none;stroke-opacity:1" />
        <path
           id="path5802"
           d="m 2266.6091,671.97065 -18.7744,0"
           style="fill:none;fill-rule:evenodd;stroke:#546e7a;stroke-width:2.49751258;stroke-linecap:butt;stroke-linejoin:miter;stroke-miterlimit:4;stroke-dasharray:none;stroke-opacity:1" />
      </g>
      <text
         transform="scale(0.99968639,1.0003137)"
         xml:space="preserve"
         style="font-style:normal;font-weight:normal;font-size:10.69386101px;line-height:125%;font-family:sans-serif;letter-spacing:0px;word-spacing:0px;fill:#546e7a;fill-opacity:1;stroke:none;stroke-width:1px;stroke-linecap:butt;stroke-linejoin:miter;stroke-opacity:1"
         x="2292.9734"
         y="585.06915"
         id="text5804"><tspan
           id="tspan5806"
           x="2292.9734"
           y="585.06915">jobs</tspan></text>
      <rect
         rx="5.1536775"
         ry="4.7247505"
         y="599.48505"
         x="2287.5383"
         height="21.761221"
         width="45.50692"
         id="rect5808"
         style="opacity:1;fill:#ffffff;fill-opacity:1;stroke:#546e7a;stroke-width:3.18268633;stroke-linejoin:miter;stroke-miterlimit:4;stroke-dasharray:none;stroke-opacity:1" />
      <text
         transform="scale(0.99968639,1.0003137)"
         id="text5810"
         y="614.15717"
         x="2291.6838"
         style="font-style:normal;font-weight:normal;font-size:10.69386101px;line-height:125%;font-family:sans-serif;letter-spacing:0px;word-spacing:0px;fill:#546e7a;fill-opacity:1;stroke:none;stroke-width:1px;stroke-linecap:butt;stroke-linejoin:miter;stroke-opacity:1"
         xml:space="preserve"><tspan
           y="614.15717"
           x="2291.6838"
           id="tspan5812">models</tspan></text>
      <text
         transform="scale(0.99968639,1.0003137)"
         xml:space="preserve"
         style="font-style:normal;font-weight:normal;font-size:10.69386101px;line-height:125%;font-family:sans-serif;letter-spacing:0px;word-spacing:0px;fill:#546e7a;fill-opacity:1;stroke:none;stroke-width:1px;stroke-linecap:butt;stroke-linejoin:miter;stroke-opacity:1"
         x="2291.7361"
         y="640.46777"
         id="text5814"><tspan
           id="tspan5816"
           x="2291.7361"
           y="640.46777">imports</tspan></text>
      <text
         transform="scale(0.99968639,1.0003137)"
         id="text5818"
         y="560.79797"
         x="2273.6196"
         style="font-style:normal;font-weight:normal;font-size:10.69386101px;line-height:125%;font-family:sans-serif;letter-spacing:0px;word-spacing:0px;fill:#546e7a;fill-opacity:1;stroke:none;stroke-width:1px;stroke-linecap:butt;stroke-linejoin:miter;stroke-opacity:1"
         xml:space="preserve"><tspan
           y="560.79797"
           x="2273.6196"
           id="tspan5820">project</tspan></text>
      <text
         id="text5822"
         y="674.36499"
         x="2384.5933"
         style="font-style:normal;font-weight:normal;font-size:21.45783043px;line-height:125%;font-family:sans-serif;letter-spacing:0px;word-spacing:0px;fill:#546e7a;fill-opacity:1;stroke:#546e7a;stroke-width:0.69135523px;stroke-linecap:butt;stroke-linejoin:miter;stroke-opacity:1"
         xml:space="preserve"><tspan
           y="674.36499"
           x="2384.5933"
           id="tspan5824"
           style="fill:#546e7a;stroke:#546e7a;stroke-width:0.69135523px">browser</tspan></text>
      <g
         transform="matrix(1.4058941,0,0,1.4058941,2222.5655,298.34858)"
         id="g5826"
         style="stroke:#546e7a">
        <path
           id="path5828"
           d="m 123.30484,182.04258 c -5.54736,-2.63854 2.30828,-7.69321 3.27189,-4.22555 0.96361,3.46768 0.43676,7.27663 0.43676,7.27663 z"
           style="fill:#546e7a;fill-rule:evenodd;stroke:#546e7a;stroke-width:0.76490206;stroke-linecap:butt;stroke-linejoin:miter;stroke-miterlimit:4;stroke-dasharray:none;stroke-opacity:1" />
        <path
           style="fill:#546e7a;fill-rule:evenodd;stroke:#546e7a;stroke-width:0.78864574;stroke-linecap:butt;stroke-linejoin:miter;stroke-miterlimit:4;stroke-dasharray:none;stroke-opacity:1"
           d="m 153.23393,183.39197 c 5.72102,-1.05387 -0.22583,-7.6029 -1.95716,-4.66713 -1.73136,2.93577 -2.18302,6.54904 -2.18302,6.54904 z"
           id="path5830" />
        <path
           style="opacity:1;fill:#ffffff;fill-opacity:1;stroke:#546e7a;stroke-width:0.95437974;stroke-linejoin:miter;stroke-miterlimit:4;stroke-dasharray:none;stroke-opacity:1"
           d="m 158.21382,200.97395 c -1.71816,6.87019 -13.06595,7.77801 -20.09323,6.90117 -7.13702,-0.89054 -18.05887,-4.61625 -18.05901,-11.80862 -1.7e-4,-8.31257 12.60822,-14.5558 20.87114,-13.64862 7.68977,0.84426 19.33176,10.35636 17.2811,18.55607 z"
           id="path5832" />
        <path
           id="path5834"
           d="m 168.46872,221.55682 c -0.28125,7.97566 -4.79149,16.53654 -11.7555,20.85714 -9.11525,5.65529 -22.5568,6.48613 -32.59649,2.46972 -3.36656,-1.34681 -5.73616,-4.74654 -6.98682,-7.99603 -4.43902,-11.53345 -6.04876,-25.81999 -0.29681,-36.82196 1.67214,-3.19834 5.42566,-5.66519 9.04489,-6.43103 10.81351,-2.28818 23.79022,-0.19541 32.49111,6.62091 6.18589,4.84606 10.37656,13.44805 10.09962,21.30125 z"
           style="opacity:1;fill:#ffffff;fill-opacity:1;stroke:#546e7a;stroke-width:0.79816288;stroke-linejoin:miter;stroke-miterlimit:4;stroke-dasharray:none;stroke-opacity:1" />
        <g
           style="stroke:#546e7a;stroke-width:1;stroke-miterlimit:4;stroke-dasharray:none"
           id="g5836"
           transform="translate(-22.129219,-51.87193)">
          <path
             style="fill:none;fill-rule:evenodd;stroke:#546e7a;stroke-width:0.47718987;stroke-linecap:butt;stroke-linejoin:miter;stroke-miterlimit:4;stroke-dasharray:none;stroke-opacity:1"
             d="m 173.25684,272.27278 5.80341,5.39852"
             id="path5838" />
          <path
             style="fill:none;fill-rule:evenodd;stroke:#546e7a;stroke-width:0.47718987;stroke-linecap:butt;stroke-linejoin:miter;stroke-miterlimit:4;stroke-dasharray:none;stroke-opacity:1"
             d="m 163.545,283.35741 c 0,0 7.30342,0.28893 12.37151,-8.48926"
             id="path5840" />
        </g>
        <circle
           r="2.1055155"
           cy="189.93085"
           cx="146.62305"
           id="circle5842"
           style="opacity:1;fill:#546e7a;fill-opacity:1;stroke:#546e7a;stroke-width:0.80000001;stroke-linejoin:miter;stroke-miterlimit:4;stroke-dasharray:none;stroke-opacity:1" />
        <circle
           style="opacity:1;fill:#546e7a;fill-opacity:1;stroke:#546e7a;stroke-width:0.80000001;stroke-linejoin:miter;stroke-miterlimit:4;stroke-dasharray:none;stroke-opacity:1"
           id="circle5844"
           cx="131.84294"
           cy="188.63293"
           r="2.1055155" />
      </g>
      <g
         id="g5846"
         transform="matrix(1.3981748,0,0,1.3981748,-905.57328,-355.23589)">
        <path
           transform="matrix(1.5669628,0,0,1.5770032,2219.9566,722.51831)"
           id="path5848"
           d="m 19.712,24.501 c 0,0 -3.24,0 -3.24,3.24 l 0,46.41 c 0,0 0,3.24 3.24,3.24 l 105.741,0 c 0,0 3.24,0 3.24,-3.24 l 0,-46.41 c 0,0 0,-3.24 -3.24,-3.24 l -105.741,0 z"
           clip-path="url(#SVGID_2_)"
           style="fill:none;stroke:#546e7a;stroke-width:0.81896514" />
        <path
           transform="matrix(1.5669628,0,0,1.5770032,2219.9566,722.51831)"
           id="path5850"
           d="m 43.614,63.057 c 0,0 -0.648,0 -0.648,0.647 l 0,5.624 c 0,0 0,0.648 0.648,0.648 l 57.662,0 c 0,0 0.648,0 0.648,-0.648 l 0,-5.624 c 0,0 0,-0.647 -0.648,-0.647 l -57.662,0 z"
           clip-path="url(#SVGID_2_)"
           style="fill:none;stroke:#546e7a;stroke-width:0.71521819" />
        <path
           transform="matrix(1.5669628,0,0,1.5770032,2219.9566,722.51831)"
           id="path5852"
           d="m 106.031,63.057 c 0,0 -0.648,0 -0.648,0.647 l 0,5.624 c 0,0 0,0.648 0.648,0.648 l 14.85,0 c 0,0 0.648,0 0.648,-0.648 l 0,-5.624 c 0,0 0,-0.647 -0.648,-0.647 l -14.85,0 z"
           clip-path="url(#SVGID_2_)"
           style="fill:none;stroke:#546e7a;stroke-width:0.71521819" />
        <path
           transform="matrix(1.5669628,0,0,1.5770032,2219.9566,722.51831)"
           id="path5854"
           d="m 24.146,63.057 c 0,0 -0.648,0 -0.648,0.647 l 0,5.624 c 0,0 0,0.648 0.648,0.648 l 14.85,0 c 0,0 0.648,0 0.648,-0.648 l 0,-5.624 c 0,0 0,-0.647 -0.648,-0.647 l -14.85,0 z"
           clip-path="url(#SVGID_2_)"
           style="fill:none;stroke:#546e7a;stroke-width:0.71521819" />
        <path
           transform="matrix(1.5669628,0,0,1.5770032,2219.9566,722.51831)"
           id="path5856"
           d="m 54.132,52.677 c 0,0 -0.647,0 -0.647,0.647 l 0,5.624 c 0,0 0,0.648 0.647,0.648 l 5.624,0 c 0,0 0.648,0 0.648,-0.648 l 0,-5.624 c 0,0 0,-0.647 -0.648,-0.647 l -5.624,0 z"
           clip-path="url(#SVGID_2_)"
           style="fill:none;stroke:#546e7a;stroke-width:0.71521819" />
        <path
           transform="matrix(1.5669628,0,0,1.5770032,2219.9566,722.51831)"
           id="path5858"
           d="m 43.752,52.677 c 0,0 -0.648,0 -0.648,0.647 l 0,5.624 c 0,0 0,0.648 0.648,0.648 l 5.624,0 c 0,0 0.647,0 0.647,-0.648 l 0,-5.624 c 0,0 0,-0.647 -0.647,-0.647 l -5.624,0 z"
           clip-path="url(#SVGID_2_)"
           style="fill:none;stroke:#546e7a;stroke-width:0.71521819" />
        <path
           transform="matrix(1.5669628,0,0,1.5770032,2219.9566,722.51831)"
           id="path5860"
           d="m 24.146,52.677 c 0,0 -0.648,0 -0.648,0.647 l 0,5.624 c 0,0 0,0.648 0.648,0.648 l 14.85,0 c 0,0 0.648,0 0.648,-0.648 l 0,-5.624 c 0,0 0,-0.647 -0.648,-0.647 l -14.85,0 z"
           clip-path="url(#SVGID_2_)"
           style="fill:none;stroke:#546e7a;stroke-width:0.71521819" />
        <path
           transform="matrix(1.5669628,0,0,1.5770032,2219.9566,722.51831)"
           id="path5862"
           d="m 64.512,52.677 c 0,0 -0.648,0 -0.648,0.647 l 0,5.624 c 0,0 0,0.648 0.648,0.648 l 5.624,0 c 0,0 0.647,0 0.647,-0.648 l 0,-5.624 c 0,0 0,-0.647 -0.647,-0.647 l -5.624,0 z"
           clip-path="url(#SVGID_2_)"
           style="fill:none;stroke:#546e7a;stroke-width:0.71521819" />
        <path
           transform="matrix(1.5669628,0,0,1.5770032,2219.9566,722.51831)"
           id="path5864"
           d="m 74.892,52.677 c 0,0 -0.647,0 -0.647,0.647 l 0,5.624 c 0,0 0,0.648 0.647,0.648 l 5.624,0 c 0,0 0.648,0 0.648,-0.648 l 0,-5.624 c 0,0 0,-0.647 -0.648,-0.647 l -5.624,0 z"
           clip-path="url(#SVGID_2_)"
           style="fill:none;stroke:#546e7a;stroke-width:0.71521819" />
        <path
           transform="matrix(1.5669628,0,0,1.5770032,2219.9566,722.51831)"
           id="path5866"
           d="m 85.271,52.677 c 0,0 -0.648,0 -0.648,0.647 l 0,5.624 c 0,0 0,0.648 0.648,0.648 l 5.624,0 c 0,0 0.647,0 0.647,-0.648 l 0,-5.624 c 0,0 0,-0.647 -0.647,-0.647 l -5.624,0 z"
           clip-path="url(#SVGID_2_)"
           style="fill:none;stroke:#546e7a;stroke-width:0.71521819" />
        <path
           transform="matrix(1.5669628,0,0,1.5770032,2219.9566,722.51831)"
           id="path5868"
           d="m 95.651,52.677 c 0,0 -0.647,0 -0.647,0.647 l 0,5.624 c 0,0 0,0.648 0.647,0.648 l 5.624,0 c 0,0 0.648,0 0.648,-0.648 l 0,-5.624 c 0,0 0,-0.647 -0.648,-0.647 l -5.624,0 z"
           clip-path="url(#SVGID_2_)"
           style="fill:none;stroke:#546e7a;stroke-width:0.71521819" />
        <path
           transform="matrix(1.5669628,0,0,1.5770032,2219.9566,722.51831)"
           id="path5870"
           d="m 106.031,52.677 c 0,0 -0.648,0 -0.648,0.647 l 0,5.624 c 0,0 0,0.648 0.648,0.648 l 14.989,0 c 0,0 0.647,0 0.647,-0.648 l 0,-5.624 c 0,0 0,-0.647 -0.647,-0.647 l -14.989,0 z"
           clip-path="url(#SVGID_2_)"
           style="fill:none;stroke:#546e7a;stroke-width:0.71521819" />
        <path
           transform="matrix(1.5669628,0,0,1.5770032,2219.9566,722.51831)"
           id="path5872"
           d="m 49.519,42.297 c 0,0 -0.648,0 -0.648,0.647 l 0,5.624 c 0,0 0,0.648 0.648,0.648 l 5.624,0 c 0,0 0.648,0 0.648,-0.648 l 0,-5.624 c 0,0 0,-0.647 -0.648,-0.647 l -5.624,0 z"
           clip-path="url(#SVGID_2_)"
           style="fill:none;stroke:#546e7a;stroke-width:0.71521819" />
        <path
           transform="matrix(1.5669628,0,0,1.5770032,2219.9566,722.51831)"
           id="path5874"
           d="m 39.139,42.297 c 0,0 -0.648,0 -0.648,0.647 l 0,5.624 c 0,0 0,0.648 0.648,0.648 l 5.624,0 c 0,0 0.648,0 0.648,-0.648 l 0,-5.624 c 0,0 0,-0.647 -0.648,-0.647 l -5.624,0 z"
           clip-path="url(#SVGID_2_)"
           style="fill:none;stroke:#546e7a;stroke-width:0.71521819" />
        <path
           transform="matrix(1.5669628,0,0,1.5770032,2219.9566,722.51831)"
           id="path5876"
           d="m 24.146,42.297 c 0,0 -0.648,0 -0.648,0.647 l 0,5.624 c 0,0 0,0.648 0.648,0.648 l 10.237,0 c 0,0 0.648,0 0.648,-0.648 l 0,-5.624 c 0,0 0,-0.647 -0.648,-0.647 l -10.237,0 z"
           clip-path="url(#SVGID_2_)"
           style="fill:none;stroke:#546e7a;stroke-width:0.71521819" />
        <path
           transform="matrix(1.5669628,0,0,1.5770032,2219.9566,722.51831)"
           id="path5878"
           d="m 59.898,42.297 c 0,0 -0.648,0 -0.648,0.647 l 0,5.624 c 0,0 0,0.648 0.648,0.648 l 5.624,0 c 0,0 0.648,0 0.648,-0.648 l 0,-5.624 c 0,0 0,-0.647 -0.648,-0.647 l -5.624,0 z"
           clip-path="url(#SVGID_2_)"
           style="fill:none;stroke:#546e7a;stroke-width:0.71521819" />
        <path
           transform="matrix(1.5669628,0,0,1.5770032,2219.9566,722.51831)"
           id="path5880"
           d="m 70.278,42.297 c 0,0 -0.647,0 -0.647,0.647 l 0,5.624 c 0,0 0,0.648 0.647,0.648 l 5.624,0 c 0,0 0.648,0 0.648,-0.648 l 0,-5.624 c 0,0 0,-0.647 -0.648,-0.647 l -5.624,0 z"
           clip-path="url(#SVGID_2_)"
           style="fill:none;stroke:#546e7a;stroke-width:0.71521819" />
        <path
           transform="matrix(1.5669628,0,0,1.5770032,2219.9566,722.51831)"
           id="path5882"
           d="m 80.658,42.297 c 0,0 -0.648,0 -0.648,0.647 l 0,5.624 c 0,0 0,0.648 0.648,0.648 l 5.624,0 c 0,0 0.647,0 0.647,-0.648 l 0,-5.624 c 0,0 0,-0.647 -0.647,-0.647 l -5.624,0 z"
           clip-path="url(#SVGID_2_)"
           style="fill:none;stroke:#546e7a;stroke-width:0.71521819" />
        <path
           transform="matrix(1.5669628,0,0,1.5770032,2219.9566,722.51831)"
           id="path5884"
           d="m 91.038,42.297 c 0,0 -0.647,0 -0.647,0.647 l 0,5.624 c 0,0 0,0.648 0.647,0.648 l 5.624,0 c 0,0 0.648,0 0.648,-0.648 l 0,-5.624 c 0,0 0,-0.647 -0.648,-0.647 l -5.624,0 z"
           clip-path="url(#SVGID_2_)"
           style="fill:none;stroke:#546e7a;stroke-width:0.71521819" />
        <path
           transform="matrix(1.5669628,0,0,1.5770032,2219.9566,722.51831)"
           id="path5886"
           d="m 101.418,42.297 c 0,0 -0.648,0 -0.648,0.647 l 0,5.624 c 0,0 0,0.648 0.648,0.648 l 5.624,0 c 0,0 0.647,0 0.647,-0.648 l 0,-5.624 c 0,0 0,-0.647 -0.647,-0.647 l -5.624,0 z"
           clip-path="url(#SVGID_2_)"
           style="fill:none;stroke:#546e7a;stroke-width:0.71521819" />
        <path
           transform="matrix(1.5669628,0,0,1.5770032,2219.9566,722.51831)"
           id="path5888"
           d="m 111.798,42.297 c 0,0 -0.647,0 -0.647,0.647 l 0,5.624 c 0,0 0,0.648 0.647,0.648 l 9.222,0 c 0,0 0.648,0 0.648,-0.648 l 0,-5.624 c 0,0 0,-0.647 -0.648,-0.647 l -9.222,0 z"
           clip-path="url(#SVGID_2_)"
           style="fill:none;stroke:#546e7a;stroke-width:0.71521819" />
        <path
           transform="matrix(1.5669628,0,0,1.5770032,2219.9566,722.51831)"
           id="path5890"
           d="m 74.635,31.916 c 0,0 -0.647,0 -0.647,0.648 l 0,5.624 c 0,0 0,0.648 0.647,0.648 l 5.625,0 c 0,0 0.647,0 0.647,-0.648 l 0,-5.624 c 0,0 0,-0.648 -0.647,-0.648 l -5.625,0 z"
           clip-path="url(#SVGID_2_)"
           style="fill:none;stroke:#546e7a;stroke-width:0.71521819" />
        <path
           transform="matrix(1.5669628,0,0,1.5770032,2219.9566,722.51831)"
           id="path5892"
           d="m 64.537,31.916 c 0,0 -0.647,0 -0.647,0.648 l 0,5.624 c 0,0 0,0.648 0.647,0.648 l 5.625,0 c 0,0 0.647,0 0.647,-0.648 l 0,-5.624 c 0,0 0,-0.648 -0.647,-0.648 l -5.625,0 z"
           clip-path="url(#SVGID_2_)"
           style="fill:none;stroke:#546e7a;stroke-width:0.71521819" />
        <path
           transform="matrix(1.5669628,0,0,1.5770032,2219.9566,722.51831)"
           id="path5894"
           d="m 54.439,31.916 c 0,0 -0.648,0 -0.648,0.648 l 0,5.624 c 0,0 0,0.648 0.648,0.648 l 5.624,0 c 0,0 0.647,0 0.647,-0.648 l 0,-5.624 c 0,0 0,-0.648 -0.647,-0.648 l -5.624,0 z"
           clip-path="url(#SVGID_2_)"
           style="fill:none;stroke:#546e7a;stroke-width:0.71521819" />
        <path
           transform="matrix(1.5669628,0,0,1.5770032,2219.9566,722.51831)"
           id="path5896"
           d="m 44.342,31.916 c 0,0 -0.648,0 -0.648,0.648 l 0,5.624 c 0,0 0,0.648 0.648,0.648 l 5.624,0 c 0,0 0.647,0 0.647,-0.648 l 0,-5.624 c 0,0 0,-0.648 -0.647,-0.648 l -5.624,0 z"
           clip-path="url(#SVGID_2_)"
           style="fill:none;stroke:#546e7a;stroke-width:0.71521819" />
        <path
           transform="matrix(1.5669628,0,0,1.5770032,2219.9566,722.51831)"
           id="path5898"
           d="m 34.244,31.916 c 0,0 -0.648,0 -0.648,0.648 l 0,5.624 c 0,0 0,0.648 0.648,0.648 l 5.624,0 c 0,0 0.648,0 0.648,-0.648 l 0,-5.624 c 0,0 0,-0.648 -0.648,-0.648 l -5.624,0 z"
           clip-path="url(#SVGID_2_)"
           style="fill:none;stroke:#546e7a;stroke-width:0.71521819" />
        <path
           transform="matrix(1.5669628,0,0,1.5770032,2219.9566,722.51831)"
           id="path5900"
           d="m 24.146,31.916 c 0,0 -0.648,0 -0.648,0.648 l 0,5.624 c 0,0 0,0.648 0.648,0.648 l 5.624,0 c 0,0 0.648,0 0.648,-0.648 l 0,-5.624 c 0,0 0,-0.648 -0.648,-0.648 l -5.624,0 z"
           clip-path="url(#SVGID_2_)"
           style="fill:none;stroke:#546e7a;stroke-width:0.71521819" />
        <path
           transform="matrix(1.5669628,0,0,1.5770032,2219.9566,722.51831)"
           id="path5902"
           d="m 84.733,31.916 c 0,0 -0.647,0 -0.647,0.648 l 0,5.624 c 0,0 0,0.648 0.647,0.648 l 5.624,0 c 0,0 0.648,0 0.648,-0.648 l 0,-5.624 c 0,0 0,-0.648 -0.648,-0.648 l -5.624,0 z"
           clip-path="url(#SVGID_2_)"
           style="fill:none;stroke:#546e7a;stroke-width:0.71521819" />
        <path
           transform="matrix(1.5669628,0,0,1.5770032,2219.9566,722.51831)"
           id="path5904"
           d="m 94.832,31.916 c 0,0 -0.648,0 -0.648,0.648 l 0,5.624 c 0,0 0,0.648 0.648,0.648 l 5.623,0 c 0,0 0.648,0 0.648,-0.648 l 0,-5.624 c 0,0 0,-0.648 -0.648,-0.648 l -5.623,0 z"
           clip-path="url(#SVGID_2_)"
           style="fill:none;stroke:#546e7a;stroke-width:0.71521819" />
        <path
           transform="matrix(1.5669628,0,0,1.5770032,2219.9566,722.51831)"
           id="path5906"
           d="m 104.93,31.916 c 0,0 -0.648,0 -0.648,0.648 l 0,5.624 c 0,0 0,0.648 0.648,0.648 l 5.623,0 c 0,0 0.648,0 0.648,-0.648 l 0,-5.624 c 0,0 0,-0.648 -0.648,-0.648 l -5.623,0 z"
           clip-path="url(#SVGID_2_)"
           style="fill:none;stroke:#546e7a;stroke-width:0.71521819" />
        <path
           transform="matrix(1.5669628,0,0,1.5770032,2219.9566,722.51831)"
           id="path5908"
           d="m 115.027,31.916 c 0,0 -0.648,0 -0.648,0.648 l 0,5.624 c 0,0 0,0.648 0.648,0.648 l 5.624,0 c 0,0 0.647,0 0.647,-0.648 l 0,-5.624 c 0,0 0,-0.648 -0.647,-0.648 l -5.624,0 z"
           clip-path="url(#SVGID_2_)"
           style="fill:none;stroke:#546e7a;stroke-width:0.71521819" />
      </g>
    </g>
    <g
       transform="translate(-463.78913,-21.643492)"
       id="g5976">
      <rect
         style="opacity:1;fill:none;fill-opacity:1;stroke:#546e7a;stroke-width:3.4567759;stroke-linejoin:miter;stroke-miterlimit:4;stroke-dasharray:none;stroke-opacity:1"
         id="rect5978"
         width="306.38892"
         height="159.9873"
         x="2200.439"
         y="532.26862"
         ry="48.417206"
         rx="48.417206" />
      <text
         xml:space="preserve"
         style="font-style:normal;font-weight:normal;font-size:21.45783043px;line-height:125%;font-family:sans-serif;letter-spacing:0px;word-spacing:0px;fill:#546e7a;fill-opacity:1;stroke:#546e7a;stroke-width:0.69135523px;stroke-linecap:butt;stroke-linejoin:miter;stroke-opacity:1"
         x="2257.0107"
         y="674.01282"
         id="text5980"><tspan
           style="fill:#546e7a;stroke:#546e7a;stroke-width:0.69135523px"
           id="tspan5982"
           x="2257.0107"
           y="674.01282">git, IDE</tspan></text>
      <path
         style="fill:none;fill-rule:evenodd;stroke:#546e7a;stroke-width:2.49751258;stroke-linecap:butt;stroke-linejoin:miter;stroke-miterlimit:4;stroke-dasharray:none;stroke-opacity:1"
         d="m 2288.2526,610.09469 -18.7744,0"
         id="path5984" />
      <g
         transform="translate(21.643489,-35.557166)"
         id="g5986">
        <rect
           rx="4.1416974"
           ry="3.5410225"
           y="585.22528"
           x="2234.6301"
           height="16.309217"
           width="71.566017"
           id="rect5988"
           style="opacity:1;fill:#ffffff;fill-opacity:1;stroke:#546e7a;stroke-width:2.47001338;stroke-linejoin:miter;stroke-miterlimit:4;stroke-dasharray:none;stroke-opacity:1" />
        <rect
           style="opacity:1;fill:#ffffff;fill-opacity:1;stroke:#546e7a;stroke-width:3.18268633;stroke-linejoin:miter;stroke-miterlimit:4;stroke-dasharray:none;stroke-opacity:1"
           id="rect5990"
           width="31.064375"
           height="21.761221"
           x="2265.8948"
           y="606.96887"
           ry="4.7247505"
           rx="5.1536775" />
        <path
           id="path5992"
           d="m 2247.1122,601.53442 0,71.53051"
           style="fill:none;fill-rule:evenodd;stroke:#546e7a;stroke-width:3.12187719;stroke-linecap:butt;stroke-linejoin:miter;stroke-miterlimit:4;stroke-dasharray:none;stroke-opacity:1" />
        <path
           style="fill:none;fill-rule:evenodd;stroke:#546e7a;stroke-width:2.49751258;stroke-linecap:butt;stroke-linejoin:miter;stroke-miterlimit:4;stroke-dasharray:none;stroke-opacity:1"
           d="m 2266.6091,617.57848 -18.7744,0"
           id="path5994" />
        <rect
           style="opacity:1;fill:#ffffff;fill-opacity:1;stroke:#546e7a;stroke-width:2.55050182;stroke-linejoin:miter;stroke-miterlimit:4;stroke-dasharray:none;stroke-opacity:1"
           id="rect5996"
           width="48.074322"
           height="17.438738"
           x="2266.137"
           y="663.25128"
           ry="3.7862613"
           rx="4.1299906" />
        <path
           style="fill:none;fill-rule:evenodd;stroke:#546e7a;stroke-width:2.49751258;stroke-linecap:butt;stroke-linejoin:miter;stroke-miterlimit:4;stroke-dasharray:none;stroke-opacity:1"
           d="m 2266.6091,671.97065 -18.7744,0"
           id="path5998" />
      </g>
      <text
         id="text6000"
         y="585.06915"
         x="2292.9734"
         style="font-style:normal;font-weight:normal;font-size:10.69386101px;line-height:125%;font-family:sans-serif;letter-spacing:0px;word-spacing:0px;fill:#546e7a;fill-opacity:1;stroke:none;stroke-width:1px;stroke-linecap:butt;stroke-linejoin:miter;stroke-opacity:1"
         xml:space="preserve"
         transform="scale(0.99968639,1.0003137)"><tspan
           y="585.06915"
           x="2292.9734"
           id="tspan6002">jobs</tspan></text>
      <rect
         style="opacity:1;fill:#ffffff;fill-opacity:1;stroke:#546e7a;stroke-width:3.18268633;stroke-linejoin:miter;stroke-miterlimit:4;stroke-dasharray:none;stroke-opacity:1"
         id="rect6004"
         width="45.50692"
         height="21.761221"
         x="2287.5383"
         y="599.48505"
         ry="4.7247505"
         rx="5.1536775" />
      <text
         xml:space="preserve"
         style="font-style:normal;font-weight:normal;font-size:10.69386101px;line-height:125%;font-family:sans-serif;letter-spacing:0px;word-spacing:0px;fill:#546e7a;fill-opacity:1;stroke:none;stroke-width:1px;stroke-linecap:butt;stroke-linejoin:miter;stroke-opacity:1"
         x="2291.6838"
         y="614.15717"
         id="text6006"
         transform="scale(0.99968639,1.0003137)"><tspan
           id="tspan6008"
           x="2291.6838"
           y="614.15717">models</tspan></text>
      <text
         id="text6010"
         y="640.46777"
         x="2291.7361"
         style="font-style:normal;font-weight:normal;font-size:10.69386101px;line-height:125%;font-family:sans-serif;letter-spacing:0px;word-spacing:0px;fill:#546e7a;fill-opacity:1;stroke:none;stroke-width:1px;stroke-linecap:butt;stroke-linejoin:miter;stroke-opacity:1"
         xml:space="preserve"
         transform="scale(0.99968639,1.0003137)"><tspan
           y="640.46777"
           x="2291.7361"
           id="tspan6012">imports</tspan></text>
      <text
         xml:space="preserve"
         style="font-style:normal;font-weight:normal;font-size:10.69386101px;line-height:125%;font-family:sans-serif;letter-spacing:0px;word-spacing:0px;fill:#546e7a;fill-opacity:1;stroke:none;stroke-width:1px;stroke-linecap:butt;stroke-linejoin:miter;stroke-opacity:1"
         x="2273.6196"
         y="560.79797"
         id="text6014"
         transform="scale(0.99968639,1.0003137)"><tspan
           id="tspan6016"
           x="2273.6196"
           y="560.79797">project</tspan></text>
      <text
         xml:space="preserve"
         style="font-style:normal;font-weight:normal;font-size:21.45783043px;line-height:125%;font-family:sans-serif;letter-spacing:0px;word-spacing:0px;fill:#546e7a;fill-opacity:1;stroke:#546e7a;stroke-width:0.69135523px;stroke-linecap:butt;stroke-linejoin:miter;stroke-opacity:1"
         x="2384.5933"
         y="674.36499"
         id="text6018"><tspan
           style="fill:#546e7a;stroke:#546e7a;stroke-width:0.69135523px"
           id="tspan6020"
           x="2384.5933"
           y="674.36499">browser</tspan></text>
      <g
         style="stroke:#546e7a"
         id="g6022"
         transform="matrix(1.4058941,0,0,1.4058941,2222.5655,298.34858)">
        <path
           style="fill:#546e7a;fill-rule:evenodd;stroke:#546e7a;stroke-width:0.76490206;stroke-linecap:butt;stroke-linejoin:miter;stroke-miterlimit:4;stroke-dasharray:none;stroke-opacity:1"
           d="m 123.30484,182.04258 c -5.54736,-2.63854 2.30828,-7.69321 3.27189,-4.22555 0.96361,3.46768 0.43676,7.27663 0.43676,7.27663 z"
           id="path6024" />
        <path
           id="path6026"
           d="m 153.23393,183.39197 c 5.72102,-1.05387 -0.22583,-7.6029 -1.95716,-4.66713 -1.73136,2.93577 -2.18302,6.54904 -2.18302,6.54904 z"
           style="fill:#546e7a;fill-rule:evenodd;stroke:#546e7a;stroke-width:0.78864574;stroke-linecap:butt;stroke-linejoin:miter;stroke-miterlimit:4;stroke-dasharray:none;stroke-opacity:1" />
        <path
           id="path6028"
           d="m 158.21382,200.97395 c -1.71816,6.87019 -13.06595,7.77801 -20.09323,6.90117 -7.13702,-0.89054 -18.05887,-4.61625 -18.05901,-11.80862 -1.7e-4,-8.31257 12.60822,-14.5558 20.87114,-13.64862 7.68977,0.84426 19.33176,10.35636 17.2811,18.55607 z"
           style="opacity:1;fill:#ffffff;fill-opacity:1;stroke:#546e7a;stroke-width:0.95437974;stroke-linejoin:miter;stroke-miterlimit:4;stroke-dasharray:none;stroke-opacity:1" />
        <path
           style="opacity:1;fill:#ffffff;fill-opacity:1;stroke:#546e7a;stroke-width:0.79816288;stroke-linejoin:miter;stroke-miterlimit:4;stroke-dasharray:none;stroke-opacity:1"
           d="m 168.46872,221.55682 c -0.28125,7.97566 -4.79149,16.53654 -11.7555,20.85714 -9.11525,5.65529 -22.5568,6.48613 -32.59649,2.46972 -3.36656,-1.34681 -5.73616,-4.74654 -6.98682,-7.99603 -4.43902,-11.53345 -6.04876,-25.81999 -0.29681,-36.82196 1.67214,-3.19834 5.42566,-5.66519 9.04489,-6.43103 10.81351,-2.28818 23.79022,-0.19541 32.49111,6.62091 6.18589,4.84606 10.37656,13.44805 10.09962,21.30125 z"
           id="path6030" />
        <g
           transform="translate(-22.129219,-51.87193)"
           id="g6032"
           style="stroke:#546e7a;stroke-width:1;stroke-miterlimit:4;stroke-dasharray:none">
          <path
             id="path6034"
             d="m 173.25684,272.27278 5.80341,5.39852"
             style="fill:none;fill-rule:evenodd;stroke:#546e7a;stroke-width:0.47718987;stroke-linecap:butt;stroke-linejoin:miter;stroke-miterlimit:4;stroke-dasharray:none;stroke-opacity:1" />
          <path
             id="path6036"
             d="m 163.545,283.35741 c 0,0 7.30342,0.28893 12.37151,-8.48926"
             style="fill:none;fill-rule:evenodd;stroke:#546e7a;stroke-width:0.47718987;stroke-linecap:butt;stroke-linejoin:miter;stroke-miterlimit:4;stroke-dasharray:none;stroke-opacity:1" />
        </g>
        <circle
           style="opacity:1;fill:#546e7a;fill-opacity:1;stroke:#546e7a;stroke-width:0.80000001;stroke-linejoin:miter;stroke-miterlimit:4;stroke-dasharray:none;stroke-opacity:1"
           id="circle6038"
           cx="146.62305"
           cy="189.93085"
           r="2.1055155" />
        <circle
           r="2.1055155"
           cy="188.63293"
           cx="131.84294"
           id="circle6040"
           style="opacity:1;fill:#546e7a;fill-opacity:1;stroke:#546e7a;stroke-width:0.80000001;stroke-linejoin:miter;stroke-miterlimit:4;stroke-dasharray:none;stroke-opacity:1" />
      </g>
      <g
         transform="matrix(1.3981748,0,0,1.3981748,-905.57328,-355.23589)"
         id="g6042">
        <path
           style="fill:none;stroke:#546e7a;stroke-width:0.81896514"
           clip-path="url(#SVGID_2_)"
           d="m 19.712,24.501 c 0,0 -3.24,0 -3.24,3.24 l 0,46.41 c 0,0 0,3.24 3.24,3.24 l 105.741,0 c 0,0 3.24,0 3.24,-3.24 l 0,-46.41 c 0,0 0,-3.24 -3.24,-3.24 l -105.741,0 z"
           id="path6044"
           transform="matrix(1.5669628,0,0,1.5770032,2219.9566,722.51831)" />
        <path
           style="fill:none;stroke:#546e7a;stroke-width:0.71521819"
           clip-path="url(#SVGID_2_)"
           d="m 43.614,63.057 c 0,0 -0.648,0 -0.648,0.647 l 0,5.624 c 0,0 0,0.648 0.648,0.648 l 57.662,0 c 0,0 0.648,0 0.648,-0.648 l 0,-5.624 c 0,0 0,-0.647 -0.648,-0.647 l -57.662,0 z"
           id="path6046"
           transform="matrix(1.5669628,0,0,1.5770032,2219.9566,722.51831)" />
        <path
           style="fill:none;stroke:#546e7a;stroke-width:0.71521819"
           clip-path="url(#SVGID_2_)"
           d="m 106.031,63.057 c 0,0 -0.648,0 -0.648,0.647 l 0,5.624 c 0,0 0,0.648 0.648,0.648 l 14.85,0 c 0,0 0.648,0 0.648,-0.648 l 0,-5.624 c 0,0 0,-0.647 -0.648,-0.647 l -14.85,0 z"
           id="path6048"
           transform="matrix(1.5669628,0,0,1.5770032,2219.9566,722.51831)" />
        <path
           style="fill:none;stroke:#546e7a;stroke-width:0.71521819"
           clip-path="url(#SVGID_2_)"
           d="m 24.146,63.057 c 0,0 -0.648,0 -0.648,0.647 l 0,5.624 c 0,0 0,0.648 0.648,0.648 l 14.85,0 c 0,0 0.648,0 0.648,-0.648 l 0,-5.624 c 0,0 0,-0.647 -0.648,-0.647 l -14.85,0 z"
           id="path6050"
           transform="matrix(1.5669628,0,0,1.5770032,2219.9566,722.51831)" />
        <path
           style="fill:none;stroke:#546e7a;stroke-width:0.71521819"
           clip-path="url(#SVGID_2_)"
           d="m 54.132,52.677 c 0,0 -0.647,0 -0.647,0.647 l 0,5.624 c 0,0 0,0.648 0.647,0.648 l 5.624,0 c 0,0 0.648,0 0.648,-0.648 l 0,-5.624 c 0,0 0,-0.647 -0.648,-0.647 l -5.624,0 z"
           id="path6052"
           transform="matrix(1.5669628,0,0,1.5770032,2219.9566,722.51831)" />
        <path
           style="fill:none;stroke:#546e7a;stroke-width:0.71521819"
           clip-path="url(#SVGID_2_)"
           d="m 43.752,52.677 c 0,0 -0.648,0 -0.648,0.647 l 0,5.624 c 0,0 0,0.648 0.648,0.648 l 5.624,0 c 0,0 0.647,0 0.647,-0.648 l 0,-5.624 c 0,0 0,-0.647 -0.647,-0.647 l -5.624,0 z"
           id="path6054"
           transform="matrix(1.5669628,0,0,1.5770032,2219.9566,722.51831)" />
        <path
           style="fill:none;stroke:#546e7a;stroke-width:0.71521819"
           clip-path="url(#SVGID_2_)"
           d="m 24.146,52.677 c 0,0 -0.648,0 -0.648,0.647 l 0,5.624 c 0,0 0,0.648 0.648,0.648 l 14.85,0 c 0,0 0.648,0 0.648,-0.648 l 0,-5.624 c 0,0 0,-0.647 -0.648,-0.647 l -14.85,0 z"
           id="path6056"
           transform="matrix(1.5669628,0,0,1.5770032,2219.9566,722.51831)" />
        <path
           style="fill:none;stroke:#546e7a;stroke-width:0.71521819"
           clip-path="url(#SVGID_2_)"
           d="m 64.512,52.677 c 0,0 -0.648,0 -0.648,0.647 l 0,5.624 c 0,0 0,0.648 0.648,0.648 l 5.624,0 c 0,0 0.647,0 0.647,-0.648 l 0,-5.624 c 0,0 0,-0.647 -0.647,-0.647 l -5.624,0 z"
           id="path6058"
           transform="matrix(1.5669628,0,0,1.5770032,2219.9566,722.51831)" />
        <path
           style="fill:none;stroke:#546e7a;stroke-width:0.71521819"
           clip-path="url(#SVGID_2_)"
           d="m 74.892,52.677 c 0,0 -0.647,0 -0.647,0.647 l 0,5.624 c 0,0 0,0.648 0.647,0.648 l 5.624,0 c 0,0 0.648,0 0.648,-0.648 l 0,-5.624 c 0,0 0,-0.647 -0.648,-0.647 l -5.624,0 z"
           id="path6060"
           transform="matrix(1.5669628,0,0,1.5770032,2219.9566,722.51831)" />
        <path
           style="fill:none;stroke:#546e7a;stroke-width:0.71521819"
           clip-path="url(#SVGID_2_)"
           d="m 85.271,52.677 c 0,0 -0.648,0 -0.648,0.647 l 0,5.624 c 0,0 0,0.648 0.648,0.648 l 5.624,0 c 0,0 0.647,0 0.647,-0.648 l 0,-5.624 c 0,0 0,-0.647 -0.647,-0.647 l -5.624,0 z"
           id="path6062"
           transform="matrix(1.5669628,0,0,1.5770032,2219.9566,722.51831)" />
        <path
           style="fill:none;stroke:#546e7a;stroke-width:0.71521819"
           clip-path="url(#SVGID_2_)"
           d="m 95.651,52.677 c 0,0 -0.647,0 -0.647,0.647 l 0,5.624 c 0,0 0,0.648 0.647,0.648 l 5.624,0 c 0,0 0.648,0 0.648,-0.648 l 0,-5.624 c 0,0 0,-0.647 -0.648,-0.647 l -5.624,0 z"
           id="path6064"
           transform="matrix(1.5669628,0,0,1.5770032,2219.9566,722.51831)" />
        <path
           style="fill:none;stroke:#546e7a;stroke-width:0.71521819"
           clip-path="url(#SVGID_2_)"
           d="m 106.031,52.677 c 0,0 -0.648,0 -0.648,0.647 l 0,5.624 c 0,0 0,0.648 0.648,0.648 l 14.989,0 c 0,0 0.647,0 0.647,-0.648 l 0,-5.624 c 0,0 0,-0.647 -0.647,-0.647 l -14.989,0 z"
           id="path6066"
           transform="matrix(1.5669628,0,0,1.5770032,2219.9566,722.51831)" />
        <path
           style="fill:none;stroke:#546e7a;stroke-width:0.71521819"
           clip-path="url(#SVGID_2_)"
           d="m 49.519,42.297 c 0,0 -0.648,0 -0.648,0.647 l 0,5.624 c 0,0 0,0.648 0.648,0.648 l 5.624,0 c 0,0 0.648,0 0.648,-0.648 l 0,-5.624 c 0,0 0,-0.647 -0.648,-0.647 l -5.624,0 z"
           id="path6068"
           transform="matrix(1.5669628,0,0,1.5770032,2219.9566,722.51831)" />
        <path
           style="fill:none;stroke:#546e7a;stroke-width:0.71521819"
           clip-path="url(#SVGID_2_)"
           d="m 39.139,42.297 c 0,0 -0.648,0 -0.648,0.647 l 0,5.624 c 0,0 0,0.648 0.648,0.648 l 5.624,0 c 0,0 0.648,0 0.648,-0.648 l 0,-5.624 c 0,0 0,-0.647 -0.648,-0.647 l -5.624,0 z"
           id="path6070"
           transform="matrix(1.5669628,0,0,1.5770032,2219.9566,722.51831)" />
        <path
           style="fill:none;stroke:#546e7a;stroke-width:0.71521819"
           clip-path="url(#SVGID_2_)"
           d="m 24.146,42.297 c 0,0 -0.648,0 -0.648,0.647 l 0,5.624 c 0,0 0,0.648 0.648,0.648 l 10.237,0 c 0,0 0.648,0 0.648,-0.648 l 0,-5.624 c 0,0 0,-0.647 -0.648,-0.647 l -10.237,0 z"
           id="path6072"
           transform="matrix(1.5669628,0,0,1.5770032,2219.9566,722.51831)" />
        <path
           style="fill:none;stroke:#546e7a;stroke-width:0.71521819"
           clip-path="url(#SVGID_2_)"
           d="m 59.898,42.297 c 0,0 -0.648,0 -0.648,0.647 l 0,5.624 c 0,0 0,0.648 0.648,0.648 l 5.624,0 c 0,0 0.648,0 0.648,-0.648 l 0,-5.624 c 0,0 0,-0.647 -0.648,-0.647 l -5.624,0 z"
           id="path6074"
           transform="matrix(1.5669628,0,0,1.5770032,2219.9566,722.51831)" />
        <path
           style="fill:none;stroke:#546e7a;stroke-width:0.71521819"
           clip-path="url(#SVGID_2_)"
           d="m 70.278,42.297 c 0,0 -0.647,0 -0.647,0.647 l 0,5.624 c 0,0 0,0.648 0.647,0.648 l 5.624,0 c 0,0 0.648,0 0.648,-0.648 l 0,-5.624 c 0,0 0,-0.647 -0.648,-0.647 l -5.624,0 z"
           id="path6076"
           transform="matrix(1.5669628,0,0,1.5770032,2219.9566,722.51831)" />
        <path
           style="fill:none;stroke:#546e7a;stroke-width:0.71521819"
           clip-path="url(#SVGID_2_)"
           d="m 80.658,42.297 c 0,0 -0.648,0 -0.648,0.647 l 0,5.624 c 0,0 0,0.648 0.648,0.648 l 5.624,0 c 0,0 0.647,0 0.647,-0.648 l 0,-5.624 c 0,0 0,-0.647 -0.647,-0.647 l -5.624,0 z"
           id="path6078"
           transform="matrix(1.5669628,0,0,1.5770032,2219.9566,722.51831)" />
        <path
           style="fill:none;stroke:#546e7a;stroke-width:0.71521819"
           clip-path="url(#SVGID_2_)"
           d="m 91.038,42.297 c 0,0 -0.647,0 -0.647,0.647 l 0,5.624 c 0,0 0,0.648 0.647,0.648 l 5.624,0 c 0,0 0.648,0 0.648,-0.648 l 0,-5.624 c 0,0 0,-0.647 -0.648,-0.647 l -5.624,0 z"
           id="path6080"
           transform="matrix(1.5669628,0,0,1.5770032,2219.9566,722.51831)" />
        <path
           style="fill:none;stroke:#546e7a;stroke-width:0.71521819"
           clip-path="url(#SVGID_2_)"
           d="m 101.418,42.297 c 0,0 -0.648,0 -0.648,0.647 l 0,5.624 c 0,0 0,0.648 0.648,0.648 l 5.624,0 c 0,0 0.647,0 0.647,-0.648 l 0,-5.624 c 0,0 0,-0.647 -0.647,-0.647 l -5.624,0 z"
           id="path6082"
           transform="matrix(1.5669628,0,0,1.5770032,2219.9566,722.51831)" />
        <path
           style="fill:none;stroke:#546e7a;stroke-width:0.71521819"
           clip-path="url(#SVGID_2_)"
           d="m 111.798,42.297 c 0,0 -0.647,0 -0.647,0.647 l 0,5.624 c 0,0 0,0.648 0.647,0.648 l 9.222,0 c 0,0 0.648,0 0.648,-0.648 l 0,-5.624 c 0,0 0,-0.647 -0.648,-0.647 l -9.222,0 z"
           id="path6084"
           transform="matrix(1.5669628,0,0,1.5770032,2219.9566,722.51831)" />
        <path
           style="fill:none;stroke:#546e7a;stroke-width:0.71521819"
           clip-path="url(#SVGID_2_)"
           d="m 74.635,31.916 c 0,0 -0.647,0 -0.647,0.648 l 0,5.624 c 0,0 0,0.648 0.647,0.648 l 5.625,0 c 0,0 0.647,0 0.647,-0.648 l 0,-5.624 c 0,0 0,-0.648 -0.647,-0.648 l -5.625,0 z"
           id="path6086"
           transform="matrix(1.5669628,0,0,1.5770032,2219.9566,722.51831)" />
        <path
           style="fill:none;stroke:#546e7a;stroke-width:0.71521819"
           clip-path="url(#SVGID_2_)"
           d="m 64.537,31.916 c 0,0 -0.647,0 -0.647,0.648 l 0,5.624 c 0,0 0,0.648 0.647,0.648 l 5.625,0 c 0,0 0.647,0 0.647,-0.648 l 0,-5.624 c 0,0 0,-0.648 -0.647,-0.648 l -5.625,0 z"
           id="path6088"
           transform="matrix(1.5669628,0,0,1.5770032,2219.9566,722.51831)" />
        <path
           style="fill:none;stroke:#546e7a;stroke-width:0.71521819"
           clip-path="url(#SVGID_2_)"
           d="m 54.439,31.916 c 0,0 -0.648,0 -0.648,0.648 l 0,5.624 c 0,0 0,0.648 0.648,0.648 l 5.624,0 c 0,0 0.647,0 0.647,-0.648 l 0,-5.624 c 0,0 0,-0.648 -0.647,-0.648 l -5.624,0 z"
           id="path6090"
           transform="matrix(1.5669628,0,0,1.5770032,2219.9566,722.51831)" />
        <path
           style="fill:none;stroke:#546e7a;stroke-width:0.71521819"
           clip-path="url(#SVGID_2_)"
           d="m 44.342,31.916 c 0,0 -0.648,0 -0.648,0.648 l 0,5.624 c 0,0 0,0.648 0.648,0.648 l 5.624,0 c 0,0 0.647,0 0.647,-0.648 l 0,-5.624 c 0,0 0,-0.648 -0.647,-0.648 l -5.624,0 z"
           id="path6092"
           transform="matrix(1.5669628,0,0,1.5770032,2219.9566,722.51831)" />
        <path
           style="fill:none;stroke:#546e7a;stroke-width:0.71521819"
           clip-path="url(#SVGID_2_)"
           d="m 34.244,31.916 c 0,0 -0.648,0 -0.648,0.648 l 0,5.624 c 0,0 0,0.648 0.648,0.648 l 5.624,0 c 0,0 0.648,0 0.648,-0.648 l 0,-5.624 c 0,0 0,-0.648 -0.648,-0.648 l -5.624,0 z"
           id="path6094"
           transform="matrix(1.5669628,0,0,1.5770032,2219.9566,722.51831)" />
        <path
           style="fill:none;stroke:#546e7a;stroke-width:0.71521819"
           clip-path="url(#SVGID_2_)"
           d="m 24.146,31.916 c 0,0 -0.648,0 -0.648,0.648 l 0,5.624 c 0,0 0,0.648 0.648,0.648 l 5.624,0 c 0,0 0.648,0 0.648,-0.648 l 0,-5.624 c 0,0 0,-0.648 -0.648,-0.648 l -5.624,0 z"
           id="path6096"
           transform="matrix(1.5669628,0,0,1.5770032,2219.9566,722.51831)" />
        <path
           style="fill:none;stroke:#546e7a;stroke-width:0.71521819"
           clip-path="url(#SVGID_2_)"
           d="m 84.733,31.916 c 0,0 -0.647,0 -0.647,0.648 l 0,5.624 c 0,0 0,0.648 0.647,0.648 l 5.624,0 c 0,0 0.648,0 0.648,-0.648 l 0,-5.624 c 0,0 0,-0.648 -0.648,-0.648 l -5.624,0 z"
           id="path6098"
           transform="matrix(1.5669628,0,0,1.5770032,2219.9566,722.51831)" />
        <path
           style="fill:none;stroke:#546e7a;stroke-width:0.71521819"
           clip-path="url(#SVGID_2_)"
           d="m 94.832,31.916 c 0,0 -0.648,0 -0.648,0.648 l 0,5.624 c 0,0 0,0.648 0.648,0.648 l 5.623,0 c 0,0 0.648,0 0.648,-0.648 l 0,-5.624 c 0,0 0,-0.648 -0.648,-0.648 l -5.623,0 z"
           id="path6100"
           transform="matrix(1.5669628,0,0,1.5770032,2219.9566,722.51831)" />
        <path
           style="fill:none;stroke:#546e7a;stroke-width:0.71521819"
           clip-path="url(#SVGID_2_)"
           d="m 104.93,31.916 c 0,0 -0.648,0 -0.648,0.648 l 0,5.624 c 0,0 0,0.648 0.648,0.648 l 5.623,0 c 0,0 0.648,0 0.648,-0.648 l 0,-5.624 c 0,0 0,-0.648 -0.648,-0.648 l -5.623,0 z"
           id="path6102"
           transform="matrix(1.5669628,0,0,1.5770032,2219.9566,722.51831)" />
        <path
           style="fill:none;stroke:#546e7a;stroke-width:0.71521819"
           clip-path="url(#SVGID_2_)"
           d="m 115.027,31.916 c 0,0 -0.648,0 -0.648,0.648 l 0,5.624 c 0,0 0,0.648 0.648,0.648 l 5.624,0 c 0,0 0.647,0 0.647,-0.648 l 0,-5.624 c 0,0 0,-0.648 -0.647,-0.648 l -5.624,0 z"
           id="path6104"
           transform="matrix(1.5669628,0,0,1.5770032,2219.9566,722.51831)" />
      </g>
    </g>
  </g>
</svg>
