<?xml version="1.0" encoding="UTF-8" standalone="no"?>
<!-- Created with Inkscape (http://www.inkscape.org/) -->

<svg
   xmlns:dc="http://purl.org/dc/elements/1.1/"
   xmlns:cc="http://creativecommons.org/ns#"
   xmlns:rdf="http://www.w3.org/1999/02/22-rdf-syntax-ns#"
   xmlns:svg="http://www.w3.org/2000/svg"
   xmlns="http://www.w3.org/2000/svg"
   xmlns:sodipodi="http://sodipodi.sourceforge.net/DTD/sodipodi-0.dtd"
   xmlns:inkscape="http://www.inkscape.org/namespaces/inkscape"
   width="27.01405mm"
   height="30.066801mm"
   viewBox="0 0 95.719073 106.53591"
   id="svg4671"
   version="1.1"
   inkscape:version="0.91 r13725"
   sodipodi:docname="datamotlogodark.svg">
  <defs
     id="defs4673" />
  <sodipodi:namedview
     id="base"
     pagecolor="#ffffff"
     bordercolor="#666666"
     borderopacity="1.0"
     inkscape:pageopacity="0.0"
     inkscape:pageshadow="2"
     inkscape:zoom="0.35"
     inkscape:cx="-251.42618"
     inkscape:cy="-266.73204"
     inkscape:document-units="px"
     inkscape:current-layer="layer1"
     showgrid="false"
     inkscape:window-width="1920"
     inkscape:window-height="1027"
     inkscape:window-x="-8"
     inkscape:window-y="-8"
     inkscape:window-maximized="1"
     fit-margin-top="0"
     fit-margin-left="0"
     fit-margin-right="0"
     fit-margin-bottom="0" />
  <metadata
     id="metadata4676">
    <rdf:RDF>
      <cc:Work
         rdf:about="">
        <dc:format>image/svg+xml</dc:format>
        <dc:type
           rdf:resource="http://purl.org/dc/dcmitype/StillImage" />
        <dc:title></dc:title>
      </cc:Work>
    </rdf:RDF>
  </metadata>
  <g
     inkscape:label="Layer 1"
     inkscape:groupmode="layer"
     id="layer1"
     transform="translate(-103.56903,-159.09425)">
    <g
       transform="translate(-17.093076,-180.31928)"
       id="g4486">
      <path
         style="opacity:1;fill:#000000;fill-opacity:1;stroke:none;stroke-width:0.65176874;stroke-linejoin:miter;stroke-miterlimit:4;stroke-dasharray:none;stroke-opacity:1"
         d="m 216.37053,391.04353 c 0.48709,28.03799 -15.7325,49.82869 -47.72917,50.08775 -13.1222,0.35559 -28.83962,-2.16809 -36.18091,-7.98689 -5.65871,-4.48516 -11.57802,-26.59027 -11.79834,-36.74075 0.64782,-10.74531 -0.43139,-21.72295 10.07249,-33.66352 8.84249,-10.05193 21.91674,-16.29084 36.8076,-16.29084 27.80875,1.85925 48.35971,21.99124 48.82833,44.59425 z"
         id="path4357"
         inkscape:connector-curvature="0"
         sodipodi:nodetypes="ccscscc" />
      <path
         style="fill:#ffffff;fill-rule:evenodd;stroke:#ffffff;stroke-width:1.60293019;stroke-linecap:butt;stroke-linejoin:miter;stroke-miterlimit:4;stroke-dasharray:none;stroke-opacity:1"
         d="m 140.39792,362.36186 c -5.54736,-2.63854 2.30828,-7.69321 3.27189,-4.22555 0.96361,3.46768 0.43676,7.27663 0.43676,7.27663 z"
         id="path4359"
         inkscape:connector-curvature="0" />
      <path
         inkscape:connector-curvature="0"
         id="path4361"
         d="m 170.32701,363.71125 c 5.72102,-1.05387 -0.22583,-7.6029 -1.95716,-4.66713 -1.73136,2.93577 -2.18302,6.54904 -2.18302,6.54904 z"
         style="fill:#ffffff;fill-rule:evenodd;stroke:#ffffff;stroke-width:1.65268755;stroke-linecap:butt;stroke-linejoin:miter;stroke-miterlimit:4;stroke-dasharray:none;stroke-opacity:1" />
      <path
         sodipodi:nodetypes="aaaaa"
         inkscape:connector-curvature="0"
         id="ellipse4363"
         d="m 175.3069,381.29323 c -1.71816,6.87019 -13.06595,7.77801 -20.09323,6.90117 -7.13702,-0.89054 -18.05887,-4.61625 -18.05901,-11.80862 -1.7e-4,-8.31257 12.61925,-14.65122 20.87114,-13.64862 8.39054,1.01945 19.33176,10.35636 17.2811,18.55607 z"
         style="opacity:1;fill:#ffffff;fill-opacity:1;stroke:#000000;stroke-width:2;stroke-linejoin:miter;stroke-miterlimit:4;stroke-dasharray:none;stroke-opacity:1" />
      <path
         style="opacity:1;fill:#ffffff;fill-opacity:1;stroke:#000000;stroke-width:1.67263174;stroke-linejoin:miter;stroke-miterlimit:4;stroke-dasharray:none;stroke-opacity:1"
         d="m 185.5618,401.8761 c -0.28125,7.97566 -4.79149,16.53654 -11.7555,20.85714 -9.11525,5.65529 -22.5568,6.48613 -32.59649,2.46972 -3.36656,-1.34681 -5.73616,-4.74654 -6.98682,-7.99603 -4.43902,-11.53345 -6.04876,-25.81999 -0.29681,-36.82196 1.67214,-3.19834 5.42566,-5.66519 9.04489,-6.43103 10.81351,-2.28818 23.79022,-0.19541 32.49111,6.62091 6.18589,4.84606 10.37656,13.44805 10.09962,21.30125 z"
         id="path4365"
         inkscape:connector-curvature="0"
         sodipodi:nodetypes="aaaaaaaa" />
      <g
         transform="translate(-5.0361427,128.44735)"
         id="g4367"
         style="stroke-width:1;stroke-miterlimit:4;stroke-dasharray:none">
        <path
           inkscape:connector-curvature="0"
           id="path4369"
           d="m 173.25684,272.27278 5.80341,5.39852"
           style="fill:none;fill-rule:evenodd;stroke:#000000;stroke-width:1;stroke-linecap:butt;stroke-linejoin:miter;stroke-miterlimit:4;stroke-dasharray:none;stroke-opacity:1" />
        <path
           sodipodi:nodetypes="cc"
           inkscape:connector-curvature="0"
           id="path4371"
           d="m 163.545,283.35741 c 0,0 7.30342,0.28893 12.37151,-8.48926"
           style="fill:none;fill-rule:evenodd;stroke:#000000;stroke-width:1;stroke-linecap:butt;stroke-linejoin:miter;stroke-miterlimit:4;stroke-dasharray:none;stroke-opacity:1" />
      </g>
      <path
         style="opacity:1;fill:#ffffff;fill-opacity:1;stroke:#000000;stroke-width:1.65860987;stroke-linejoin:miter;stroke-miterlimit:4;stroke-dasharray:none;stroke-opacity:1"
         d="m 144.13202,433.61144 c 4.55187,0.18744 4.42763,6.05541 2.87926,8.9144 -0.54275,1.00216 -2.17246,1.97476 -3.77109,1.97476 -1.59861,0 -3.32208,-0.9522 -3.77106,-1.97476 -1.32611,-3.0202 -0.0497,-9.10846 4.66289,-8.9144 z"
         id="path4375"
         inkscape:connector-curvature="0"
         sodipodi:nodetypes="aaaaa" />
      <path
         sodipodi:nodetypes="aaaaa"
         inkscape:connector-curvature="0"
         id="path4377"
         d="m 178.84693,433.93408 c -4.70482,0.19213 -4.5764,6.207 -2.976,9.13755 0.56099,1.02725 2.24546,2.0242 3.8978,2.0242 1.65233,0 3.4337,-0.97604 3.89777,-2.0242 1.37067,-3.0958 0.0514,-9.33647 -4.81957,-9.13755 z"
         style="opacity:1;fill:#ffffff;fill-opacity:1;stroke:#000000;stroke-width:1.70722079;stroke-linejoin:miter;stroke-miterlimit:4;stroke-dasharray:none;stroke-opacity:1" />
      <circle
         style="opacity:1;fill:#000000;fill-opacity:1;stroke:none;stroke-width:0.80000001;stroke-linejoin:miter;stroke-miterlimit:4;stroke-dasharray:none;stroke-opacity:1"
         id="circle4379"
         cx="163.71613"
         cy="370.25012"
         r="2.1055155" />
      <path
         sodipodi:nodetypes="csc"
         style="fill:none;fill-rule:evenodd;stroke:#000000;stroke-width:1px;stroke-linecap:butt;stroke-linejoin:miter;stroke-opacity:1"
         d="m 185.40737,353.80766 c 0.62801,-2.18222 2.15776,-4.1804 4.15533,-5.05903 2.25478,-0.99176 4.32646,-2.76962 4.69502,-4.04786"
         id="path4383"
         inkscape:connector-curvature="0" />
      <circle
         r="2.1055155"
         cy="368.95221"
         cx="148.93602"
         id="circle4402"
         style="opacity:1;fill:#000000;fill-opacity:1;stroke:none;stroke-width:0.80000001;stroke-linejoin:miter;stroke-miterlimit:4;stroke-dasharray:none;stroke-opacity:1" />
      <path
         sodipodi:nodetypes="assa"
         inkscape:connector-curvature="0"
         id="path4481"
         d="m 193.68067,346.15369 c -1.91543,-1.33564 0.32283,-7.00215 1.94232,-6.73073 1.61071,0.26996 3.29159,1.47311 3.93301,2.4117 0.85135,1.24576 -3.88152,5.70932 -5.87533,4.31903 z"
         inkscape:transform-center-y="-0.057164151"
         inkscape:transform-center-x="-0.65866687"
         style="opacity:1;fill:#000000;fill-opacity:1;stroke:none;stroke-width:1;stroke-linejoin:miter;stroke-miterlimit:4;stroke-dasharray:none;stroke-opacity:1" />
    </g>
  </g>
</svg>
